<?xml version="1.0" encoding="UTF-8"?>
<svg xmlns="http://www.w3.org/2000/svg" viewBox="96.84 -2 766.33 964">
  <!-- Generated from amCharts geodata | Mercator projection -->
    <path d="M499.92,676.27L495.23,676.23L479.89,675.41L475.16,674.9L476.37,673.74L477.82,670.96L478.06,668.63L481.36,668.22L482.33,667.63L485.3,663.63L485.76,663.74L482.91,667.8L485.2,668.79L487.56,668.44L487.93,663.94L489.14,663.78L490.43,664.89L494.48,666.69L498.36,666.75L500.43,669.76L499.24,674.44ZM704.97,417.92L707.1,417.88L714.48,423.52L715.24,425.1L712.55,428.01L710.24,432.23L706.75,433.99L702.73,434.97L700.94,433.42L699.69,428.3L700.01,423.25L702.45,419.55ZM701.99,824.01L700.57,826.55L697.95,828.05L696.42,830.62L693.75,830.45L691.72,829.55L691.28,828.09L689.76,826.71L687.71,824.35L686.17,824.35L685.21,823.53L683.51,822.48L681.49,822L679.02,820.21L679.71,817.35L678.42,816.7L676.71,816.77L675.65,815.51L673,814.36L672.22,815.84L671.23,814.59L670.15,814.44L665.85,816.38L664.14,815.84L664.48,814.45L662.72,813.41L659.05,811.87L658.29,810.77L656.48,809.94L654.96,810.09L653.81,809.35L650.92,809.71L647.24,809.4L645.5,808.17L643.35,807.73L639.94,806.01L638.93,806.25L636.04,805.62L634.69,807.24L631.08,803.91L629.61,802.07L624.82,797.81L620.62,796.37L618.04,793.3L615.85,793.61L614.59,792.9L612.98,790.29L610.94,789.21L608.64,788.58L608.39,787.92L610.91,786.76L616.44,785.79L616.17,783.69L617.96,781.06L618.68,778.79L620.24,778.77L620.64,777.73L623.06,777.78L619.81,774.34L618.53,774.21L617.37,771.6L618.95,771.8L621,770.85L623.12,771.28L622.64,769.57L625.48,768.5L629.33,766.22L628.57,764.33L627.22,764.3L626.47,765.41L624.44,765.78L623,765.41L620.88,766.38L621.4,764.25L620.78,763.73L621.45,760.98L624.83,759.17L626.25,757.53L630.09,757.78L632.79,757.66L633.96,753.87L634.56,753.05L633.58,749.45L632.08,748.88L633.24,746.31L632.41,743.93L634,743.26L635.41,741.63L635.85,739.6L635.1,736.86L633.15,737.15L630.66,735.27L629.4,735.1L628.4,733.71L626.39,734.09L624.27,732.54L622.74,732.4L621.23,731.32L619.57,732.94L616.89,730.63L615.93,728.4L614.68,726.93L609.49,728.4L608.39,729.41L607.46,728.54L605.94,728.54L604.45,726.96L602.68,726.61L600.99,727.73L598.93,725.35L599.16,723.03L598.16,719.11L596.95,718.89L596.21,717.12L593.46,717.5L590.08,715.76L588.83,711.14L590.85,710.67L591,709.86L588.77,707.33L587.27,703.87L585.81,702.67L581.21,702.73L579.27,703.8L576.2,703.14L575.06,703.6L574.44,705.62L572.02,706.48L570.37,705.79L568.91,703.09L568.98,700.26L568.58,696.83L566.42,693.99L567.66,691.65L569.62,691.59L571.04,692.83L573.33,693.02L577.73,689.82L577.59,688.35L575.9,687.05L575.74,685.12L573.79,683.95L570.3,683.56L570.95,681.03L570.59,680.3L567.55,678.43L565.84,674.98L564.97,674.45L565.34,672.34L562.82,670.51L563.06,668.72L564.22,666.87L562.94,663.74L563.61,662.1L563.66,659.72L561.46,658.39L560.13,656.71L558.39,655.9L556.06,655.89L552.51,658.13L551.49,656.74L551.66,654.59L549.41,653.43L547.12,654.54L545.31,652.44L543.13,652.95L542.06,651.73L542.48,650.08L541.71,646.04L540.95,645.27L539.38,641.45L538.07,641.76L539.45,637.14L539.31,634.97L535.82,631.9L536.2,629.87L537.31,627.93L538.97,627.31L536.89,620.96L537.23,618.5L536.41,614.02L537.08,611.71L539,609.19L540.1,605.74L542.08,604.26L541,602.57L541.01,598.85L541.93,597.89L543.52,599.34L544.45,597.45L548.32,597.23L549.88,594.56L553.97,595.25L557.52,596.53L557.91,595.22L556.38,594.14L554.38,591.49L549.27,591.55L545.93,588.64L545.99,584.9L544.92,583.84L542.3,585.53L539.32,586.09L544.09,580.31L550.7,573.98L554.13,569.75L560.99,560.11L563.89,556.81L566.63,552.68L568.57,547.25L568.38,546.05L565.81,541.67L559.84,536.51L556.99,533.25L560.5,527.36L560.38,523.49L557.41,521.15L556.45,517.66L557.5,516.07L557.13,513.87L554.86,513.15L553.46,510.12L555.08,507.53L553.66,505.37L554.43,500.68L554.33,497.82L557.31,496.74L557.25,494.74L555.8,488.89L553.35,483.73L552.37,480.3L549.46,474.02L549.41,471.59L553.21,464.46L556.1,459.91L556.39,457.01L552.83,452.02L551.42,449.24L546.26,446.56L544.58,440.23L546.79,434.14L545.33,430.74L548.46,428.7L550.37,427.05L551.77,422.62L556.52,420.52L558.34,415.12L561.38,417.39L563.3,417.26L563.37,411.75L567.94,413.87L570.56,411.01L572.1,407.87L576.65,411.22L579.59,412.46L580.01,415.29L578.13,415.75L573.6,414.22L575.18,418.59L577.21,418.36L583.61,419.72L585.41,422.35L589.68,422.29L594.65,424.17L597.98,423.12L602.43,424.97L617.09,435.86L622.57,443.05L625.72,443.7L631.49,449.04L635.14,450.22L637.85,454.05L642.43,456.5L643.74,465.63L645.5,466.79L644.85,472.73L644.17,474.48L638.95,481.98L635.67,484.84L629.29,488.1L622.32,489.41L616.29,488.14L613.68,486.3L609.57,484.97L606.47,484.8L599.73,482.97L594.34,478.74L591.66,479.94L591.42,477.95L583.82,475.7L581.23,474.13L578.85,470.58L579.51,469.27L575.35,467.94L575.85,472.69L579.49,476.9L581.46,477.38L581.75,480.31L585.19,482.05L584.49,484.43L588.76,486.29L591.01,488.17L594.04,493.25L592.7,500L591.06,502.15L593.14,506.41L594.17,509.79L594.69,517.62L595.99,519.8L599.09,521.49L600.78,520.92L604.69,524.34L606.4,527.68L614.84,531.05L618.95,528.64L619.76,527.26L618.84,521.98L617.17,520.58L614.74,521L612.81,520.38L607.68,512.36L607.73,510.68L609.69,509.77L610.45,506.33L612.47,505.92L615.51,507.52L619.28,511.77L622.43,512.18L623.44,513.39L627.45,514.81L631.47,517.43L632.97,517.31L635.32,513.76L638.35,513.62L637.07,509.57L635.98,508.36L633.28,503.01L633.43,498.33L637.43,495.41L640.28,491.35L643.29,490.24L646.42,488.27L648.81,485.63L652.17,480.54L655.24,482.45L660.18,482.58L663.47,485.79L667,490.49L666.94,486.11L670.01,477.54L669.35,470.93L668.47,469.01L665.05,467.22L664.48,465.88L667.95,450.64L667.51,443.66L661.52,437.65L662.05,436.12L666.56,438.93L674.63,438.3L681,440.41L687.2,451.16L687.25,453.69L678.15,455.58L673.54,461.34L673.54,463.93L678.42,467.28L679.91,471.23L681.73,473.95L687.26,474.5L693.56,472.41L695.23,470.11L695.69,465.46L696.79,461.81L696.52,459.16L704.38,456.13L702.95,453.17L706.56,453.25L712.63,449.18L719.74,443.17L723.63,442.06L728.79,439.15L731.06,440.84L734.07,441.54L733.14,438L734.18,435.02L742.94,429.27L744.26,432.57L742.6,437.11L743.95,441.35L739.34,443.32L738.7,444.92L744.24,445.77L748.89,444.8L751.23,446.31L751.72,442.67L755.59,438.53L760.49,436.78L765.01,437.43L768.97,438.82L777.17,431.58L783.01,429.09L786.54,434.86L784.52,437.49L784.42,441.16L788.37,443.15L790.67,441.64L790.66,435.55L795.3,435.06L798.78,429.46L796.67,426.76L792.81,416.09L799.43,410.2L805.34,412.21L812.08,412.66L817.79,414.19L824.29,417.35L827.43,419.56L830.87,423.24L836.39,426.28L836.99,427.49L841.71,430.31L846.3,431.93L847.45,434.52L853.13,440.59L856.22,465.25L850.55,476.53L840.04,487.33L829.07,496.08L815.61,511.28L801,522.65L795.72,578.51L791.98,603.25L787.02,617.25L782.06,627.15L776.02,634.79L774.46,641.57L780.35,646.48L781.22,652.51L776.58,659.99L769.42,661.77L760.81,662.8L764.43,669.64L767.78,674.76L772.84,681.27L778.14,677.06L783.29,673.92L788.57,676.92L790.56,681.82L786.84,685.72L783.68,691.87L783.93,699.3L789.18,701.17L791.41,706.43L792,708.46L794.51,709.95L795.11,711.49L799.09,712.93L799.42,713.49L802.15,714.13L803.65,715.6L803.88,716.79L802.35,721.38L801.08,722.45L798.85,723.43L796.47,723.82L793.73,723.32L792.35,721.71L791.12,722.15L790,724.83L787.74,725.93L787.18,724.36L782.73,723.44L780.1,720.01L778.63,718.86L774.55,718.51L773.1,720.58L771.44,721.03L769.38,719.2L768.07,718.84L765.01,719.89L764,719.41L761.28,721.58L760.54,723.21L758.57,724.58L756.57,724.59L753.85,722.82L752.44,721.27L750.18,719.68L749.24,721.14L749.58,723.86L748.18,724.81L747.79,722.38L744.82,718.22L742.05,716.51L740.85,714.66L739.31,713.62L736.96,713.85L733.3,713.63L731.42,711.11L728.88,711.22L725.77,713.6L723.69,713.71L722.28,711.54L719.39,710.51L719.09,711.19L715.1,716.04L711.78,718.01L709.24,718.61L707.87,721.49L703.84,724.59L702.64,724.36L702.99,727.64L704.11,731.8L703.45,732.84L700.91,734.05L699.27,732.79L696.33,728.52L695.21,727.34L693.62,727.03L692.23,728.62L691.99,731.25L689.61,733.76L688.81,735.64L688.13,739.62L689.82,741.63L689.79,742.84L687.35,746.34L686.62,749.08L687.02,750.99L689.71,752.5L690.61,754.35L690.41,756.45L691.96,758.86L693.45,758.13L698.37,758.81L701.83,763.73L705.02,770.01L703.59,770.74L702.25,770.11L701.5,771.43L702.28,772.39L706.78,774.86L705.96,776.67L702.86,777.84L702.91,780.06L701.32,779.54L699.52,781.31L696.18,782.59L695.16,782.34L693.78,783.28L693.51,784.92L691.41,789.71L689.35,792.38L687.76,793.77L687.38,795.45L687.74,796.36L689.86,797.21L691.48,798.86L692.51,801.03L693.03,803.35L694.59,803.06L693.66,806.27L693.69,809.41L693.3,811.38L695.23,813.77L695.37,815.16L696.11,815.88L699.29,820.46L700.51,822.86ZM788.63,413.16L787.58,409.86L783.27,409.26L781.13,405.64L779.52,400.66L782.03,396.8L783.68,396.04L788.63,402.28L794.54,407.67L794.92,413.05L793.16,413.91ZM738.27,379.5L735.37,381.28L731.15,374.69L734.91,373.64ZM725.56,356.86L727.93,354.76L730.8,355.36L733.7,350.98L736,341.41L732.96,339.6L735.19,335.94L738.6,333.33L738.21,328.65L742.56,324.7L745.2,325.16L751.85,322.24L754.83,324.29L761.23,325.71L763.51,327.2L761.63,331.73L760.8,338.22L757.99,338.83L757.15,343.23L755.11,346.73L756.38,353.04L754.65,360.3L760.49,374.96L763.71,380.76L767.16,385.1L772.87,389.82L769.12,393.13L765.23,391.78L763.55,393.74L761.27,391.51L757.7,390.69L754.18,391.31L749.2,390.98L742.31,387.79L741.26,382.09L743.37,381.65L743.6,378.6L739.87,375.09L739.51,370.14L735.94,371.29L732.11,370.25L727.36,371.38L725.62,369.41L724.43,364.28ZM861.09,222.58L861.16,225.51L855.41,235.13L840.67,244.97L824.85,253.43L820.13,255.04L802.09,266.1L796.6,274.06L793.36,276.61L795.4,278.61L793.21,281.85L785.52,284.93L784.43,290.39L780,290.65L781.02,296.75L779.27,301.36L773.99,304.65L774.81,309.26L772.23,314.65L769.03,318.92L767.7,322.7L763.52,324.59L756.62,322.96L752.37,320.3L746.84,323.12L746.09,317.87L742.63,311.63L747.52,306.86L749.52,306.19L754.99,292.96L760.76,291.16L756.88,286.86L759.47,281.86L764.06,277.02L760.13,275.63L758.66,271.93L760.43,269.82L764.62,272.76L768.67,263.97L772.73,265.28L774.11,260.14L782.71,249.12L791.76,244.96L793.66,241.32L799.72,240.54L800.88,235.22L805.47,234.92L810.82,236.92L814.74,236.72L826.42,232.03L837.38,224.15L838.95,219.64L844.95,213.52L850.48,210.61L857.92,213.18L860.95,218.15ZM721.6,95.44L713.88,93.26L720.5,88.11ZM784.96,94.72L783.22,90.47L787.91,87L790.78,92.64ZM768.94,77.86L768.61,88.09L761.72,88.92L760.34,76.73ZM733.14,83.19L730.5,80.33L738.11,73.38L743.33,80.12L740.74,83.96ZM785.64,76.64L778.93,77.79L774.24,87.66L770.19,83.55L768.57,69.54L779.57,70.93ZM677.06,66.39L674.99,61.97L688.1,56.99L693.14,52.17L700.99,54.5L702.41,63.08L694.38,57.63L692.05,64.2L687.15,66.35ZM786.04,63.64L788.28,53.99L795.24,54.59L803.98,50.22L808.92,55.08L807.73,63.67L804.64,65.14L799.7,73.11L793.65,69.53L788.73,72.52ZM706.02,68.51L707.25,53.75L714.14,48.68L719.44,49.18L726.51,60.28L720.69,67.34L711.96,69.38L709.92,75.08L704.52,75.41L705.42,82.93L701.16,87.39L694.63,87.3L689.6,84.07L686.89,78.64L694.81,69.23L700.66,65.98ZM797.94,48.4L791.93,45.67L796.07,40.49L803.75,42.37ZM747.43,55.43L750.12,39.05L756,43.9L761.48,43.43L773.42,55.17L766.53,61.43L757.9,62.7L753.24,57.15ZM777.3,40.13L780.69,42.81L782.54,55.81L775.32,55.12L769.63,44.04ZM815.87,46.56L823.55,44.99L825.22,36.05L829.07,34.92L833.62,42.05L834.05,48.36L827.09,56.97L817.89,59.67L811.21,53.73ZM757.93,35.36L768.7,16.96L773.59,15.71L778.72,25.1L771.51,38.06L766.58,32.83ZM811.29,11.29L813.36,7.4L820.52,9.12L819.1,14.01ZM775.54,8.67L776.87,1.44L785.69,0L786.43,5.23Z" fill="#dadada" stroke="#fff" stroke-width="0.5" id="RU" data-name="Russia"/>
    <path d="M279.88,881.32L279.85,881.8L279.7,881.67L279.71,881.49Z" fill="#dadada" stroke="#fff" stroke-width="0.5" id="GI" data-name="Gibraltar"/>
    <path d="M354.74,714.82L354.32,715.82L352.2,717.06L349.68,716.08L348.83,716.63L347.88,714.93L349.75,714.66L352.06,715.22ZM354.74,714.82L353.02,714.11L351.57,714.54L349.74,713.97L348.65,712.88L350.96,712.19L353.6,712.75L354.4,712.01L352.55,709.48L353.63,707.15L354.61,706.32L356.75,703.13L357.37,701.42L358.28,696.68L358.99,694.97L361,694.86L361.64,697.13L363.2,697.98L360.91,699.1L361.74,702.12L365.19,699.46L365.46,697.27L364.13,696.18L363.74,692.96L364.96,690.7L369.12,688.89L375.02,688.44L376.21,689.94L378.01,690.52L377.95,694.21L376.56,698.96L374.49,698.95L374.49,701.14L376.74,702.22L376.28,704.45L374.49,705.82L374.44,708.2L371.42,709.3L369.93,708.59L368.22,710.09L370.14,713.54L369.22,716.86L369.65,717.81L367.81,719.85L369.01,720.83L368.58,722.75L367.04,722.7L366.23,722.45L367.28,718.09L364.78,716.22L363.23,716.41L361.58,715.32L361.26,713.99L359.61,714.61L356.91,713.72Z" fill="#dadada" stroke="#fff" stroke-width="0.5" id="NL" data-name="Netherlands"/>
    <path d="M419.05,823.45L418.98,823.46L418.98,823.37L419.04,823.36Z" fill="#dadada" stroke="#fff" stroke-width="0.5" id="VA" data-name="Vatican City"/>
    <path d="M620.88,766.38L615.63,766.57L614.03,768.38L613.08,768.38L610.84,769.44L609.76,770.7L608.93,770.13L606.92,770.49L605.73,771.34L603.74,771.25L602.19,771.73L598.84,774.49L597.52,773.82L596.21,775.79L594.53,776.66L594.59,778.95L595.89,782.16L598.64,786.05L600.08,786.53L602.24,785.52L603.64,785.85L604.88,784.94L608.04,785.61L607.07,787.4L606.62,789.25L605.34,789.69L602.52,789.92L601.02,788.85L599.41,788.89L598.51,790.22L596.93,791.13L596.4,792.16L593.49,792.11L591.56,793.06L590.09,795.07L588.46,796.32L587.18,796.72L585.19,796.22L583.58,794.9L584.85,791L584.4,788.89L583.13,787.89L581.52,787.82L579.41,786.11L577.01,786.33L576.2,785.49L581.16,781.63L582.24,781.45L585.26,779.4L584.7,777.72L583.42,778.16L581.64,776.82L579.59,777.41L575.95,777.86L572.5,775.86L572.29,773.94L571.26,772.89L575.05,773.43L574.99,772.41L573.22,772.03L572.02,770.76L570.49,771.65L568.56,771.27L566.9,771.86L565.46,771.73L562.8,772.55L562.21,774.67L560.56,777.62L558.28,780.31L555.16,781.82L553.44,782.37L554.42,786.16L554.26,787.09L553.17,785.86L551.89,785.31L550.48,785.5L546.85,787.38L544.43,786.73L542.56,784.97L544.59,784.34L544.75,782.56L546.61,780.47L546.69,779.51L548.32,778.24L548.78,776.81L548.16,774.01L549.87,772.84L553.55,774.29L554.62,773.85L555.29,774.84L557.59,774.02L555.96,772.7L556.11,770.59L555.6,769.39L553.21,767.84L552.76,766.39L553.03,764.59L549.98,762.17L549.69,761.31L550.38,758.97L550.25,757.21L548.52,756.62L546.96,754.44L543.46,753.94L543.18,753.04L541.59,752.82L539.49,750.95L537.37,750.22L534.86,751.48L531.87,751.29L530.08,752.79L527.63,753.45L526.51,755.93L521.04,756.88L518.74,757.91L517.99,758.81L516.57,759.13L514.11,756.64L510.97,756.94L506.67,755.89L504.94,755.96L503.33,754.85L500.78,756.46L499.94,754.55L498.48,754.27L496.66,752.83L495.9,751.05L494.95,751.08L495.03,749.15L496.23,747.76L498.13,743.15L500.26,743.77L499.44,741.97L499.65,740.49L499,737.55L502.03,733.19L507.32,727.35L509.37,726.95L510.32,724.4L509.41,722.31L510.41,721.58L509.09,719.74L508.51,718.08L506.95,715.78L506.49,713.17L507.28,711.62L509.19,712.32L510.57,711.32L512.41,708.75L519.5,707.86L524.65,708.17L528.79,709.44L534.18,710.22L535.18,711.97L539.79,712.23L540.98,712.64L542.33,712.04L545.59,712.86L545.97,713.94L549.79,711.92L551.44,714.87L553.06,714.22L557.82,713.67L559.17,715.59L560.82,716.34L561.51,715.21L560.73,712.18L561.78,709.43L564.24,706.48L566.1,706.43L567.1,705.73L570.37,705.79L572.02,706.48L574.44,705.62L575.06,703.6L576.2,703.14L579.27,703.8L581.21,702.73L585.81,702.67L587.27,703.87L588.77,707.33L591,709.86L590.85,710.67L588.83,711.14L590.08,715.76L593.46,717.5L596.21,717.12L596.95,718.89L598.16,719.11L599.16,723.03L598.93,725.35L600.99,727.73L602.68,726.61L604.45,726.96L605.94,728.54L607.46,728.54L608.39,729.41L609.49,728.4L614.68,726.93L615.93,728.4L616.89,730.63L619.57,732.94L621.23,731.32L622.74,732.4L624.27,732.54L626.39,734.09L628.4,733.71L629.4,735.1L630.66,735.27L633.15,737.15L635.1,736.86L635.85,739.6L635.41,741.63L634,743.26L632.41,743.93L633.24,746.31L632.08,748.88L633.58,749.45L634.56,753.05L633.96,753.87L632.79,757.66L630.09,757.78L626.25,757.53L624.83,759.17L621.45,760.98L620.78,763.73L621.4,764.25Z" fill="#dadada" stroke="#fff" stroke-width="0.5" id="UA" data-name="Ukraine"/>
    <path d="M525,841.73L523.21,842.05L523.21,841.12L524.6,840.69ZM646.69,827.44L649.14,828.33L649.94,827.67L652.18,827.76L654.17,828.25L654.97,827L656.69,826.95L659.52,829.64L659.96,830.76L661.17,830.85L661.79,831.72L663.3,833.57L664.01,835.73L663.59,837.23L662.81,838.18L663.92,841.42L664.56,842.41L666.23,842.98L668.45,842.71L670.57,844.27L672.2,846.15L672.58,846.69L670.78,845.49L669.76,846.52L669.23,849.01L666.37,849.46L666.8,851.07L667.58,851.81L667.32,853.33L668.31,854.93L668.2,856.29L668.46,859.1L669.56,859.72L668.76,862.19L667.84,864.19L670.58,865.81L670.68,868.87L672.4,870.3L672.19,871.62L670.93,871.42L668.39,873.37L667.77,872.64L667.82,871.16L666.29,870.07L664.91,870.95L662.4,870.75L659.08,869.54L657.86,869.96L656.59,869.5L654.1,871.89L653.33,872.09L652.63,870.44L650.99,871.13L646.73,872.28L644.77,872.47L642.37,872.08L640.39,872.19L634.99,874.86L632.41,875.71L629.83,876.26L625.21,876.15L622.68,874.5L620.7,874.12L614.79,876.64L611.89,876.55L610.92,875.52L608.7,875.09L608.21,876.08L607.75,878.45L608.57,880.34L606.48,881.23L606.26,882.86L605.12,883.49L604.54,884.52L603.29,883.76L603.2,882.91L602.06,879.89L602.63,878.95L605.01,876.49L604.95,875.04L603.92,874.03L600.89,875.85L599.92,877.09L598.79,877.31L597.09,876.72L594.23,875.12L592.59,875.26L590.23,877.02L588.06,879.59L585.49,881.13L580.83,881.89L579.5,881.97L578.44,882.55L576.4,881.92L575.18,881.12L572.39,877.7L570.48,876.94L567.15,875.1L561.6,874.47L561.12,875.14L560.93,877.79L560.35,879.88L559.59,880.53L558.37,879.91L557.21,880.47L554.13,881.38L551.46,880.39L549.85,879.04L549.03,876.15L546.52,876.08L544.68,875.08L543.28,874.99L542.43,876.22L541.56,875.59L539.36,875.73L538.2,876.33L538.01,875.24L540.39,875.02L541.55,873.93L541.95,872.86L538.3,873.08L535.8,872.96L535.02,872.38L537.26,871.54L537.14,870.7L534.78,869.32L534.66,868.32L533.68,866.38L534.83,866.01L534.89,863.49L532.63,862.65L530.58,861.31L529.8,861.8L527.51,860.52L528.6,858.89L528.2,857.05L529.83,857.72L529.9,859.11L531.98,859.57L532.34,858.48L531.22,856.19L532.36,855.53L533.17,854.41L531.62,853.67L531.92,852.11L530.58,850.32L532.37,848.04L531.71,847.58L526.12,848.55L526.45,846.63L526.66,843.23L527.69,842.87L528.96,841.11L531.01,839.02L533.16,839.07L535.3,838.45L536.79,839.85L538.77,839.76L543.16,838.99L545.83,839.27L548.78,839.13L547.07,837.65L548.4,836.65L555,835.31L551.58,834.8L549.09,832.75L549.47,830.99L551.25,830.46L555.93,831.26L559.26,830.78L562.9,831.95L566.38,831.71L567.98,829.5L572.9,826.69L574.62,825.21L576.47,824.41L579.63,823.52L583.04,822.19L589.39,822.76L593.76,822.83L595.76,821.7L596.93,822.08L596.67,823.52L598.04,825.22L600.08,826.22L602.91,825.38L603.94,825.71L604.95,828.39L605.72,829.33L607.53,830.1L608.61,829.16L609.63,829.05L611.31,829.97L611.89,830.91L614.75,831.64L617.37,832.01L618.5,832.81L622.19,833.61L623.56,833.49L625.87,832.65L630.37,831.73L633.36,833.01L635.87,833.42L636.94,833.23L642.38,830.63L645.94,828.42ZM541.01,822.7L540.8,823.9L542.45,827.05L543.61,827.97L548.31,830.24L549.18,830.44L548.39,832.74L547.01,833.1L542.25,831.99L540.31,832.93L538.92,832.69L536.98,833.11L536.44,834.49L535.09,836.06L531.28,838.01L528.9,840.45L527.82,841.86L527.22,839.91L528.74,838.57L530.88,837.54L531.44,836.7L526.06,836.85L525.55,835.66L526.09,835.42L527.83,833.3L527.83,830.35L530.13,828.65L529.79,826.56L527.75,825.35L528.06,824.46L529.24,824.2L530.06,822.74L532.17,822.46L533.16,821.76L535.38,821.53L537.26,823.21L539.95,822.52Z" fill="#dadada" stroke="#fff" stroke-width="0.5" id="TR" data-name="Türkiye"/>
    <path d="M510.8,494.39L507.16,493.94L503.48,494.75L502.55,495.72L499.76,493.13L496.78,493.67L495.9,498.34L493.29,499.57L492.97,501.61L490.52,501.91L490.05,504.97L490.58,507.2L487.17,513.07L488.27,514.61L489.73,520.9L486.23,524.54L484.22,530.08L479.86,533.72L477.58,534.63L476.08,537.22L473.2,536.97L470.69,541.16L467.34,542.19L466.22,547.07L461.78,548.19L462.39,550.06L461.3,553.78L457.69,555.07L459.17,558.68L457.69,564.46L458.03,566.54L455.79,569.26L456.73,583.46L459.11,584.39L459.94,586.1L462.25,585.23L464.56,588.86L466.96,590.57L466.79,592.15L468.76,593.31L469.9,595.46L470.2,598.34L464.29,603.55L462.32,604.49L460.82,603.65L461.09,601.5L457.68,602.39L455.25,601.26L451.42,600.6L450.64,602.02L452.75,603.39L454.09,603.16L457.67,605.48L461.62,605.85L466.58,603.74L464.83,608.32L461.26,610.67L458.34,612.13L457.49,613.31L454.59,615.22L451.94,615.26L454.17,617.64L452.04,618.51L452.96,621.8L452.42,622.59L452.37,626.19L451.28,627.74L452.04,632.3L450.66,635.72L451.07,638.56L449.66,643.71L448.11,646.68L446.91,650.6L445.57,651.98L444.01,651.13L441.66,651.62L437.4,651.46L437.18,653.27L435.65,653.05L432.96,656.07L432.86,657.51L433.95,660.31L432.64,662.12L429.76,661.67L425.96,662.81L422.55,661.91L423.27,658L420.25,651.8L421.89,650.02L420.75,647.53L422.33,647.36L422.53,645.01L421.23,644.37L418.91,640.89L415.31,633.38L414.66,629.68L413.53,629.12L413.29,625.37L412.08,624.95L411.3,623.22L411.16,619.92L409.91,617.9L409.41,612.01L408.93,610.15L410.82,609.43L411.47,611.35L412.81,611.11L414.03,605.56L413.11,600.9L414.31,599.27L415.08,596.68L416.94,595.92L419.42,592.88L420.22,587.45L418.07,580.39L417.91,578.61L420.96,577.89L422.51,572.93L420.28,569.83L416.83,566.87L417.99,557.45L416.51,552.27L416.46,546.67L417.32,545.27L415.61,540.22L417.27,536.71L416.98,534.89L420.8,528.79L423.34,526.82L425.79,526.39L430.96,527.48L432.38,524.62L431.88,519.37L428.53,517.23L432.17,510.53L435.03,503.92L436.25,493.63L435.53,488.15L440.3,486.96L442.89,484.72L442.42,481.13L450.09,469.9L450.33,467.89L447.93,462.4L448.45,460.78L451.52,458.25L453.07,452.73L457.31,448.37L461.94,451.28L463.98,446.33L463.87,439.37L465.56,438.64L470.84,440.13L478.02,443.03L480.14,440.46L478.01,439.08L480.76,434.52L480.9,431.36L479.17,428.72L483.13,428.37L489.73,435.89L493.9,439.54L500.04,442.3L502.51,445.13L506.75,451.5L505.68,453.14L505.95,459.03L505.41,461.9L507.49,462.46L507.81,464.38L506.63,467.3L507.05,469.65L509.49,474.79L508.52,479.42L507.24,481.3L507.63,486.96L508.85,487.79ZM471.02,627.39L468.97,629.3L468.74,634.33L468.08,636.04L464.83,638.35L463.42,635.62L463.66,631.48L466.8,627.47L469.18,626.44ZM451.07,649.65L450.07,649.36L450.16,645.71L451.87,641.31L453.03,642.34Z" fill="#dadada" stroke="#fff" stroke-width="0.5" id="SE" data-name="Sweden"/>
    <path d="M450.98,773.15L449.45,772.75L448.71,774.59L444.08,776.54L444.32,778.26L444,780.68L441.27,781.81L441.76,784.78L439.97,784.97L437.02,784.32L435.45,782.79L434.17,784.62L431.94,784.66L430.32,785.21L427.97,784.23L429.08,783.44L429.95,782.4L427.9,780.67L428.25,779.24L427.25,778.36L428.39,776.81L426.57,776.26L426.57,775.21L428.76,773.57L428.92,772.92L435.22,774.09L437.2,773.15L439.11,771.71L442.54,771.67L445.11,770.73L446.6,771.12L446.75,769.7L447.66,769L449.16,769.07L449.92,771.56Z" fill="#dadada" stroke="#fff" stroke-width="0.5" id="SI" data-name="Slovenia"/>
    <path d="M498.13,743.15L496.23,747.76L495.03,749.15L494.95,751.08L492.09,751.87L489.62,749.34L486.61,749.89L485.04,749.42L482.09,749.64L480.87,752.37L477.46,754.3L475.32,753.22L474.08,754.54L469.75,755.25L468.8,755.84L468.26,758.33L463.73,758.6L460.73,758.52L459.74,758.06L457.25,755.95L455.92,755.77L454.55,753.52L453.69,750.65L454.4,748.79L455.26,746.63L456.24,745.68L458.54,746.07L460.7,745.35L463.27,743.24L463.85,740.94L465.45,740L467.26,738.13L469.11,737.89L470.18,739.27L471.6,739.23L472.38,737.89L473.88,736.85L475.62,739.28L476.49,739.56L476.71,741.72L478.71,741.85L479.54,740.23L481.1,739.4L483.08,739.33L485.67,740.23L486.71,739.01L491.09,739.08L493.06,739.91L494.07,741.51Z" fill="#dadada" stroke="#fff" stroke-width="0.5" id="SK" data-name="Slovakia"/>
    <path d="M480.15,777.58L481.06,779.08L484.33,781.62L484.32,784.59L485.63,785.92L487.86,787.3L489.47,787.84L489.94,788.62L488.88,790.08L489.1,791.41L491.07,793.18L493.21,793.67L494.64,795.03L496.66,793.55L497.81,793.22L499.56,794.33L497.85,795.61L498.07,796.83L499.44,798.36L498.59,800.14L497.21,800.88L496.78,802.46L497.01,804.14L498.26,806.87L499.93,807.95L501.56,809.74L501.29,810.71L499.45,813L497.57,813.44L497.33,815.71L498.02,817.71L496.61,819.06L495.79,818.59L494.32,819.16L493.16,818.97L490.49,819.76L491.98,815.28L489.15,814.41L489.24,813.55L487.94,812.69L486.53,810.77L484.87,809.89L484.23,808.98L483.13,809.62L483.14,811.39L480.95,813.59L480.92,812.9L477.82,810.88L476.54,810.58L474.74,809.48L473.67,808.07L472.14,806.91L471.95,806.02L473.96,805.71L474.25,804.18L472.34,801.34L474.73,801.1L475,800.48L473.08,798.5L471.61,797.66L471.61,795.19L472.71,793.33L473.22,791.54L472.28,790.93L470.48,791.42L471.21,790.27L470.92,788.46L473.46,788.06L473.01,787.01L470.46,785.54L470.86,784.11L469.17,780.66L469.68,779.58L471.11,778.62L472.06,778.98L473.5,778.25L474.58,777.05L479.52,777.2Z" fill="#dadada" stroke="#fff" stroke-width="0.5" id="RS" data-name="Serbia"/>
    <path d="M419.41,802.03L418.72,801.67L419.06,801.15L419.64,801.47Z" fill="#dadada" stroke="#fff" stroke-width="0.5" id="SM" data-name="San Marino"/>
    <path d="M542.56,784.97L544.43,786.73L546.85,787.38L550.48,785.5L551.89,785.31L553.17,785.86L554.26,787.09L553.7,790.2L553.1,791.71L549.11,792.66L548.15,792.08L547.22,794.78L547.57,795.42L545.95,797.73L546.05,801.13L545.48,803.76L544.21,803.78L541.29,802.89L539.99,801.1L536.4,800.73L533.75,799.13L529.07,800.04L526.93,800.88L524.72,802.37L523.82,803.49L521.3,804.53L518.66,804.36L512.95,803.19L511.35,803.53L509.19,803.28L505.93,802.55L503.5,802.33L501.11,802.76L500.71,801.53L501.97,800.11L499.44,798.36L498.07,796.83L497.85,795.61L499.56,794.33L497.81,793.22L496.66,793.55L494.64,795.03L493.21,793.67L491.07,793.18L489.1,791.41L488.88,790.08L489.94,788.62L489.47,787.84L487.86,787.3L485.63,785.92L484.32,784.59L484.33,781.62L481.06,779.08L480.15,777.58L482.24,776.92L483.06,777.3L484.81,775.87L486.4,776.07L487.27,775.37L488.59,771.91L489.98,770.81L489.96,769.84L492.24,765.84L492.89,763.92L493.88,762.87L493.92,761.6L496.19,759.01L499.21,758.19L500.78,756.46L503.33,754.85L504.94,755.96L506.67,755.89L510.97,756.94L514.11,756.64L516.57,759.13L517.99,758.81L518.74,757.91L521.04,756.88L526.51,755.93L527.63,753.45L530.08,752.79L531.4,752.84L532.92,754.02L534.26,756.31L535.7,760.04L537.88,763.51L539.75,766.11L541.46,767.67L542.78,771.54L542.81,773.7L541.83,777.24L541.68,779.11L542.15,782.77L541.48,783.31Z" fill="#dadada" stroke="#fff" stroke-width="0.5" id="RO" data-name="Romania"/>
    <path d="M187.04,912.63L188.1,913.12L189.08,912.88L190.93,913.66L189.8,914.68L188.39,914.55L187.19,914ZM120.8,864.86L123.8,864.78L123.92,865.91L122.45,866.1L120.14,865.63ZM101.24,858.77L100.58,859.45L98.84,859.21L99.24,857.76ZM109.64,856.86L107.85,856.68L108.19,855.26L109.9,855.87ZM263.65,871.39L262.97,871.5L260.3,873.1L257.93,872.39L254.32,871.96L251.19,872.83L252.63,868.91L252.8,865.93L252.12,863.69L252.72,861.45L252.65,860.3L251.84,858.17L249.5,858.82L249.21,856.73L247.46,855.99L247.45,854.76L248.41,850.77L248.24,849.86L250.01,847.79L252.44,841.94L252.06,841.29L252.95,836.91L253.64,835.39L253.87,832.52L253.22,829.87L252.65,826.03L252.05,824.85L252.92,823L254.79,821.64L257.33,820.96L257.99,822.18L257.24,823.47L257.81,824.35L259.62,823.6L261.41,823.55L263.67,824.12L266.6,822.89L269.82,822.98L270.3,823.7L270.42,825.82L271.6,825.89L273,827.29L271.51,828.92L269.26,830.6L267.39,832.73L267.95,834.09L268.26,836.41L268.02,838.91L268.32,839.61L266.72,840.99L267.49,842.54L267.53,843.77L266.55,846.04L265.91,846.37L263.28,846.38L263.35,847.85L264.21,848.57L264.44,849.86L265.48,851.91L266.85,852.7L266.47,854.21L264.63,856.14L264.15,858.72L266,861.48L266.65,862.83L265.38,863.22L263.36,865.98L262.89,867.39Z" fill="#dadada" stroke="#fff" stroke-width="0.5" id="PT" data-name="Portugal"/>
    <path d="M475.16,674.9L479.89,675.41L495.23,676.23L499.92,676.27L501.87,676.39L505.3,679.13L505.54,681.85L506.44,686.36L507.92,690.67L508.69,693.85L508.92,697.19L508.36,698.56L505.5,700.01L503.34,702.76L503.29,703.8L506.43,705.76L506.85,706.56L506.65,709.49L506.01,710.75L506.49,713.17L506.95,715.78L508.51,718.08L509.09,719.74L510.41,721.58L509.41,722.31L510.32,724.4L509.37,726.95L507.32,727.35L502.03,733.19L499,737.55L499.65,740.49L499.44,741.97L500.26,743.77L498.13,743.15L494.07,741.51L493.06,739.91L491.09,739.08L486.71,739.01L485.67,740.23L483.08,739.33L481.1,739.4L479.54,740.23L478.71,741.85L476.71,741.72L476.49,739.56L475.62,739.28L473.88,736.85L472.38,737.89L471.6,739.23L470.18,739.27L469.11,737.89L468.91,736.65L467.25,734.91L466.99,733.43L464.99,733.01L462.81,731.53L461.61,732.3L459.38,730.04L460.4,728.31L458.01,728.85L455.95,727.34L453.74,726.89L454.71,728.79L452.25,730.78L448.58,726.78L450.22,724.93L449.15,723.92L446.99,724.46L444.82,722.88L441.88,721.99L441.13,720.17L439.05,719.47L438.97,721.06L437.61,721.4L438.82,718.47L439.23,716.5L438.37,713.86L436.95,713.1L437.05,711.79L435.98,709.2L437.17,706.03L436.8,704.43L435.62,702.48L436.12,700.31L435.3,698.8L432.28,695.79L434.16,692.83L434.52,690.51L433.3,684.64L435.09,685.4L435.64,683.4L432.95,682.76L432.92,681.71L434.28,682.05L436.88,680.8L446.15,677.65L448.39,677.16L451.32,673.62L453.86,673.04L456.82,671.24L461.37,670.06L465.13,669.76L466.01,671.03L467.84,675.27L470.24,676.38L473.61,675.88Z" fill="#dadada" stroke="#fff" stroke-width="0.5" id="PL" data-name="Poland"/>
    <path d="M485.29,80.98L496.86,88.32L497.45,73.88L504.22,72.79L502.65,83.88L507.13,82.97L509.21,78.43L521.1,81.76L523.96,84.42L531.98,85.11L534.62,96.57L525.28,109.34L522.43,118.54L515.45,120.17L509.17,127.34L500.99,125.81L499.36,121.68L493.22,119.47L485,118.77L475.71,110.46L482.12,108.66L484.39,103.59L479.22,102.26L473.55,104.56L468.27,103.05L464.59,95.57L465.28,89.69L461.94,85.88L473.2,83.95L476.77,77.4L481.07,73.93ZM453.09,96.56L459.29,97.54L464.72,110.05L467.15,111.3L469.12,119.31L468.64,124.58L471.12,128.89L481.84,130.05L482.18,136.15L489.13,145.91L486.84,148.48L476.44,150.61L470.86,162.52L470.38,171.6L466.04,173.74L465.43,186.5L464.38,192.32L459.65,196.77L455.96,209.17L456.72,211.95L454.58,217.39L455.25,222.6L452.42,225.3L443.39,214.82L440.08,207.91L434.14,202.65L431.31,195.12L431.83,190.82L436.71,192.24L438.49,186.26L448.55,182.8L455.03,182.24L453.61,178.01L447.4,180.4L443.69,179.59L436,183.4L431.98,183.22L429.64,180.16L428.77,173.63L439.06,168.95L444.25,163.29L453.02,161.29L450.45,155.31L442.37,156.51L440.17,148.96L434.93,148.51L434.65,155.76L436.27,158.79L432.14,164.37L424.62,165.65L420.82,159.96L417.63,151.72L413.84,146.88L414.52,142.23L410.64,137.42L415.97,136.07L414.77,129.09L409.41,130.03L405.73,113.53L405.32,104.24L406.73,101.46L417.8,100.61L421.51,102.38L428.87,98.6L429.53,105.04L423.75,106.37L426.45,115.21L431.71,119.38L431.58,110.7L435.92,101.37L439.51,106.8L444.27,125.64L448.92,130.76L445.96,113.56L445.5,106.51L447.72,97.56ZM490.85,151.68L494.26,152.43L496.26,166.01L501.66,165.1L505.29,169.02L502.66,175.01L507.1,179.35L511.44,178.49L516.64,183.76L510.59,187.38L508.34,193.22L500.2,201.18L497.26,199.75L497.42,190.56L494.36,193.1L486.48,195.28L485.09,190.78L487.66,188.8L490.85,177.83L486.36,172.46L484.41,165.09L480.04,156.32ZM251.54,387.2L251.45,385.37L254.92,382.61L256.31,379.96L258.99,379.06L258.99,382.36L254.03,384.78Z" fill="#dadada" stroke="#fff" stroke-width="0.5" id="SJ" data-name="Svalbard and Jan Mayen"/>
    <path d="M472.42,405.29L475.06,407.5L473.04,410.91L471.45,411.13L468.74,416.35L464.74,417.33L463.25,415.29L465.33,412.1ZM458.7,415.97L462.63,418.01L463.19,420.45L462.21,424.83L457.3,426.33L454.54,426.15L454.78,421.2L457.59,420.77L456.74,418.04ZM445.06,438.67L447.4,436.1L448.11,432.61L449.51,431.87L451.22,435.33L451,437.13L448.45,439.16L446.25,442.34L442.53,443.96L438.53,444.09L436.2,446.38L433.29,445.15L435.86,442.1L439.85,441.23L442.34,437.5L443.52,431.92L442.88,428.23L446.09,423.06L447.83,424.43L445.46,428.64L446.37,434.97ZM440.73,430.42L442.21,433.89L440.84,437.49L435.35,437.13L434.19,435.44L438.1,431.06ZM430.28,444.97L431.5,446.61L425.24,450.64L425,448.72L427.65,445.31ZM409.59,512.01L406.47,512.43L406.32,510.95L408.82,509.98ZM522,379.92L524.81,380.83L526.29,383.45L521.96,384.29L519.87,382.53ZM563.37,411.75L563.3,417.26L561.38,417.39L558.34,415.12L556.52,420.52L551.77,422.62L550.37,427.05L548.46,428.7L547.52,425.3L551.34,418.73L549.84,414.27L544.12,410.85L540.04,405.39L537.7,405.84L533.92,408.99L529.35,408.75L525.33,414.7L523.27,424.09L523.27,429.39L520.2,432.17L516.95,437.98L508.43,433.4L507.28,435.39L504.28,436.78L497.13,435.26L496.26,432.31L490.96,423.22L488.18,423.15L486.5,425.08L487.09,427.4L483.13,428.37L479.17,428.72L480.9,431.36L480.76,434.52L478.01,439.08L480.14,440.46L478.02,443.03L470.84,440.13L465.56,438.64L463.87,439.37L463.98,446.33L461.94,451.28L457.31,448.37L453.07,452.73L451.52,458.25L448.45,460.78L447.93,462.4L450.33,467.89L450.09,469.9L442.42,481.13L442.89,484.72L440.3,486.96L435.53,488.15L436.25,493.63L435.03,503.92L432.17,510.53L428.53,517.23L431.88,519.37L432.38,524.62L430.96,527.48L425.79,526.39L423.34,526.82L420.8,528.79L416.98,534.89L417.27,536.71L415.61,540.22L417.32,545.27L416.46,546.67L416.51,552.27L417.99,557.45L416.83,566.87L420.28,569.83L422.51,572.93L420.96,577.89L417.91,578.61L418.07,580.39L420.22,587.45L419.42,592.88L416.94,595.92L415.08,596.68L414.31,599.27L413.11,600.9L414.03,605.56L412.81,611.11L411.47,611.35L410.82,609.43L410.65,608.39L406.49,607.18L405,604.03L404.92,600.74L403.07,602.03L403.33,605.71L401.36,609.84L396.96,610.8L395.22,612.93L391.56,616.48L388.37,620.51L385.59,622.82L380.11,624.66L376.5,624.61L373.8,621.07L371.67,621L366.33,617.18L364.85,614.12L365.15,610.36L367.49,610.6L368.38,607.14L367.42,604.58L365.22,605.53L363.63,607.44L361.83,606.53L362.25,603.04L363.19,600.12L364.5,599.03L366.85,599.84L367.59,598.71L366.52,596.7L369.51,592.48L369.73,590.88L372.69,588.13L373.81,588.77L374.94,586.65L371.34,587.95L369.83,589.1L366.27,594.4L364.67,597.28L362.63,599.36L361.74,597.15L362.41,593.17L364.67,593.45L362.24,589.7L361.87,587.53L362.71,585.56L361.18,583.35L360.86,578.03L363.34,576.9L360.97,574.58L360.82,571.6L362.82,571.24L360.23,567.04L360.68,563.89L364.44,563.95L368.75,565.77L369.66,564.69L364.51,563.14L362.05,562.95L361.92,559.56L363.6,559.7L364.98,557.03L369.56,554.72L371.39,551.94L374.46,551.48L378.68,552.09L380.68,550.9L378.36,549.53L374.74,550.41L374.75,548.89L376.53,546.01L379.5,544.88L380.94,543.56L385.08,543.71L386.42,540.31L388.83,539.84L388.94,537.87L387.41,535.96L390.88,534.01L394.65,535.34L397.58,534.39L400.58,537.75L402.61,537.11L405.9,537.26L405.63,534.38L410.68,531.2L409.15,529.53L407.11,529.13L407.27,531.82L402.61,535.33L399.36,536.19L398.13,533.06L396.56,532.95L397.66,530.13L398.89,529.19L400.03,526.24L401.8,524.51L404.38,520.2L406.48,518.82L409.55,515.44L410.52,511.28L411.61,509.98L416.86,506.21L416.57,502.77L417.75,498.89L420.53,494.37L421.01,492.53L423.25,490.28L421.75,488.72L424.37,486.19L424.26,480.15L425.88,476.95L428.31,475.1L428.54,472.87L430.33,471.71L432.12,468.61L437.34,467.09L442.36,466.94L442.51,466.04L434.78,465L437.18,460.9L440.81,457.7L437.39,457.29L437.53,454.51L441.58,449.1L444.24,447.1L447.44,446.35L447.88,449.97L449.85,449.25L448.3,444.63L449.97,442.34L453.71,443.06L459.24,441.1L451.51,440.7L452.04,437.29L455.79,435.83L457.82,433.54L460.28,426.99L463.39,425.75L463.21,422.02L464.89,418.68L470.35,416.75L471.97,412.55L478.8,409.47L481.29,409.83L480.42,417.32L482.66,415.14L483.12,408.78L487.36,409.33L488.07,406.74L493.72,410.58L492.37,405.29L489.22,402.8L493.88,400.05L499.28,398.15L501.29,399.78L502.11,404.48L506.92,397.57L509.88,395.57L512.86,390.46L511.64,387.51L514.73,383.33L517.74,385.06L523.42,386.87L519.55,393.99L518.55,399.33L517.36,401.79L519.07,403.68L521.09,398.95L529.21,385.44L530.98,386.85L529.81,396.31L532.98,394.96L534.51,389.47L537.42,387.48L534.91,384.61L537.74,381.15L542.01,382.32L543.97,383.94L542.49,393.42L544.32,395.19L545.67,389.1L547.41,386.61L549.53,386.69L551.84,389.7L554.96,391.87L557.07,390.44L558.23,394.21L561.22,394.67L563.81,397.54L563.95,400.49L555.98,404.6L547.01,403.47L547.19,404.69L553.44,407.34L553.71,411.82L554.93,413L560.35,411.49ZM505.19,387.76L502.28,393.01L496.73,394.88L496.66,391.51ZM509.72,393.64L506.99,392.94L507.84,389.39L510.19,391.68ZM506.56,394.07L506.03,397.38L502.99,400.3L501.29,396.52Z" fill="#dadada" stroke="#fff" stroke-width="0.5" id="NO" data-name="Norway"/>
    <path d="M471.95,806.02L472.14,806.91L473.67,808.07L474.74,809.48L476.54,810.58L477.82,810.88L480.92,812.9L480.95,813.59L478.49,814.62L478.76,816.58L476.6,817.33L475.55,815.72L472.62,820.55L473.26,821.64L473.11,823.75L471.89,822.91L471.38,821.74L469.6,819.74L466.64,817.8L466.01,816.45L466.85,815.23L466.24,814.14L466.07,812.09L467.48,811.46L467.87,809.28L469.26,808.04L470.71,807.91L469.96,806.41Z" fill="#dadada" stroke="#fff" stroke-width="0.5" id="ME" data-name="Montenegro"/>
    <path d="M435.71,884.31L434.69,884.62L434.03,884.13L434.78,883.31Z" fill="#dadada" stroke="#fff" stroke-width="0.5" id="MT" data-name="Malta"/>
    <path d="M496.61,819.06L498.48,821.27L500.47,822.44L501.79,825.35L501.36,826.51L501.09,829.33L499.83,829.58L499.59,830.98L497.78,831.6L495.36,831.18L493.36,831.72L492.19,833.34L490.59,834.19L485.81,834.38L485.07,833.68L483.81,833.57L483.39,832.19L482.08,830L481.77,827.4L482.69,823.7L484.08,823.38L484.35,821.63L486.55,820.56L488.09,821.33L489.14,820.05L490.49,819.76L493.16,818.97L494.32,819.16L495.79,818.59Z" fill="#dadada" stroke="#fff" stroke-width="0.5" id="MK" data-name="North Macedonia"/>
    <path d="M542.56,784.97L541.48,783.31L542.15,782.77L541.68,779.11L541.83,777.24L542.81,773.7L542.78,771.54L541.46,767.67L539.75,766.11L537.88,763.51L535.7,760.04L534.26,756.31L532.92,754.02L531.4,752.84L530.08,752.79L531.87,751.29L534.86,751.48L537.37,750.22L539.49,750.95L541.59,752.82L543.18,753.04L543.46,753.94L546.96,754.44L548.52,756.62L550.25,757.21L550.38,758.97L549.69,761.31L549.98,762.17L553.03,764.59L552.76,766.39L553.21,767.84L555.6,769.39L556.11,770.59L555.96,772.7L557.59,774.02L555.29,774.84L554.62,773.85L553.55,774.29L549.87,772.84L548.16,774.01L548.78,776.81L548.32,778.24L546.69,779.51L546.61,780.47L544.75,782.56L544.59,784.34Z" fill="#dadada" stroke="#fff" stroke-width="0.5" id="MD" data-name="Moldova"/>
    <path d="M379.89,803.66L379.42,803.87L379.7,803.44Z" fill="#dadada" stroke="#fff" stroke-width="0.5" id="MC" data-name="Monaco"/>
    <path d="M535.82,631.9L539.31,634.97L539.45,637.14L538.07,641.76L539.38,641.45L540.95,645.27L541.71,646.04L542.48,650.08L542.06,651.73L540.09,652.66L538.1,654.97L537.59,656.54L533.48,656.1L531.68,657.79L529.88,658.37L527.44,657.22L525.91,655.17L521.99,651.91L517.96,650.92L516.65,648.13L515.05,648.37L513.72,649.57L510.52,650.02L508.11,649.1L501.5,648.38L498.51,648.45L494.58,648.01L491.2,649.31L486.45,652.75L486.2,650.1L486.64,642.07L488.83,639.29L489.68,634.89L491.79,631.27L498.26,629.03L498.99,630.92L502.82,634.87L504,638.25L506.82,639.96L509.04,639.42L511.78,637.06L512.73,634.85L512.1,626.88L518.27,624.03L520.07,624.39L523.62,626.91L525.17,627.36L527.57,630.83L529.41,631.86L532.28,630.72Z" fill="#dadada" stroke="#fff" stroke-width="0.5" id="LV" data-name="Latvia"/>
    <path d="M369.54,730.49L369.71,732.28L370.63,733.52L372.45,734.41L371.32,738.59L370.52,738.09L368.31,738.57L366.98,737.56L367.69,736.27L366.47,734.29L366.63,732.94L368.44,729.92Z" fill="#dadada" stroke="#fff" stroke-width="0.5" id="LU" data-name="Luxembourg"/>
    <path d="M529.88,658.37L528.82,662.86L531.31,663.81L529.94,665.78L527.52,665.65L526.61,667.51L524.14,668.66L523.06,671.4L523.08,673.47L521.69,676.61L522.91,677.13L523.27,678.95L521.89,679.18L521.02,677.13L518.81,678.18L517.77,679.27L516.04,679.46L515.59,681.38L514.44,681.31L512.06,682.47L511.07,681.71L507.49,682.21L505.54,681.85L505.3,679.13L501.87,676.39L499.92,676.27L499.24,674.44L500.43,669.76L498.36,666.75L494.48,666.69L490.43,664.89L489.14,663.78L487.93,663.94L487.95,661.31L486.57,656.34L486.45,652.75L491.2,649.31L494.58,648.01L498.51,648.45L501.5,648.38L508.11,649.1L510.52,650.02L513.72,649.57L515.05,648.37L516.65,648.13L517.96,650.92L521.99,651.91L525.91,655.17L527.44,657.22Z" fill="#dadada" stroke="#fff" stroke-width="0.5" id="LT" data-name="Lithuania"/>
    <path d="M396.66,766.77L395.94,766.72L396.25,764.31Z" fill="#dadada" stroke="#fff" stroke-width="0.5" id="LI" data-name="Liechtenstein"/>
    <path d="M490.49,819.76L489.14,820.05L488.09,821.33L486.55,820.56L484.35,821.63L484.08,823.38L482.69,823.7L482.76,822.23L482.06,820.02L480.14,818.79L478.76,816.58L478.49,814.62L480.95,813.59L483.14,811.39L483.13,809.62L484.23,808.98L484.87,809.89L486.53,810.77L487.94,812.69L489.24,813.55L489.15,814.41L491.98,815.28Z" fill="#dadada" stroke="#fff" stroke-width="0.5" id="XK" data-name="Kosovo"/>
    <path d="M305.84,741.25L304.14,741.91L304.26,740.83Z" fill="#dadada" stroke="#fff" stroke-width="0.5" id="JE" data-name="Jersey"/>
    <path d="M443.62,861.09L442.83,862.65L440.94,865.42L439.88,868.64L440.46,871.1L441.41,873.02L440.22,874.22L439.99,876.2L437.35,875.99L435.2,875.12L434.15,873.42L432.39,872.13L430.53,872.16L426.27,869.72L424.77,868.44L422.85,867.54L421.08,867.52L419.74,866.56L419.02,865.07L419.9,862.75L421.36,861.46L422.68,862.94L423.83,862.44L424.69,861.39L426.2,861.48L428.78,863.27L429.62,863.47L431.67,862.88L433.52,863.11L435.23,862.83L437.9,861.57L440.03,861.76L443.01,860.39ZM397.07,834.05L398.42,838L397.15,840.38L397.61,842.19L396.95,849.7L396.52,851.6L395.93,851.87L394.19,851.09L392.56,850.86L392.3,852.84L391.19,854.16L389.37,854.02L387.56,851.2L387.42,848.41L387.82,845.97L388.58,844.77L387.48,843.97L387.98,841.79L387.98,840.13L387.05,837.99L385.78,836.43L385.88,834.17L387.96,834.55L390.72,833.35L392.11,831.68L394.34,830.73L395.69,831.27L396.94,832.65ZM428.92,772.92L428.76,773.57L426.57,775.21L426.57,776.26L428.39,776.81L427.25,778.36L428.25,779.24L427.9,780.67L429.95,782.4L429.08,783.44L428.36,781.38L427.08,782.07L425.06,781.38L423.68,782.88L419.51,784.84L417.76,785.02L417.38,787.3L418.69,789.54L419.71,790.34L419.24,791.69L417.79,791.83L417.56,793.05L418,796.27L418.71,798.52L421.03,801.01L422.72,801.82L425.76,804.36L427.86,805.61L429.74,809.82L431.36,815.07L432.7,817.02L435.51,819.8L438.05,821.82L440.42,823.07L442.27,823.28L446.65,823.01L448.22,823.47L448.12,824.91L446.26,826.36L446.16,827.49L447.03,828.3L451.25,830.42L455.57,832.19L458.48,834.48L462.24,836.39L462.88,837.33L465.16,839.32L466.2,840.86L466.4,842.05L465.28,844.95L463.2,843.77L461.54,840.25L458.49,839.9L456.78,839.03L456.45,838.14L455.01,837.86L454.2,838.43L452.17,841.72L451.08,844.56L451.02,845.7L451.61,846.81L453.39,847.42L455.66,849.43L455.73,851.9L456.13,853.3L455.54,854.09L454.38,853.88L452.85,854.39L451.31,856.14L451.21,859.2L449.15,860.8L447.38,863.86L444.78,863.89L444.16,862.94L444.14,861.53L445.54,860.26L446.19,858.46L445.98,857.15L446.72,856.17L448.48,855.7L448.58,853.87L447.78,853.04L447.12,849.71L445.79,846.93L444.53,843.23L443.69,842.59L441.41,842.41L438.72,840.68L439,839.26L438.37,837.42L437.27,836.26L434.87,836.63L434.88,835.64L433.69,834.77L432.08,834.62L430.17,831.48L429.18,830.38L427.78,830.42L425.38,829.82L424.14,830.29L422.26,828.58L420.55,827.94L417.22,824.35L416.2,823L414.1,821.51L412.77,819.34L411.69,818.54L409.23,817.54L409.1,816.71L407.3,814.54L406.24,813.85L405.5,812.44L403.98,812.1L404.12,810.25L403.45,807.77L402.46,806.24L401.88,802.56L400.32,800.74L397.84,799.85L394.38,797.47L390.29,796.34L388.61,797.18L386.58,799.47L384.93,801.84L382.2,803.1L380.32,803.49L380.23,802.43L381.76,800.05L381.15,799.12L379.36,799.57L376.2,797.9L375.23,795.37L376.7,793.11L376.4,791.89L374.41,790.85L373.54,788.67L375.22,788.47L377.07,787.32L377.66,785.52L376.57,784.41L374.93,780.89L376.62,779.64L377.47,780.15L380.68,779.05L382.63,779.69L384.24,778.63L385.27,776.99L384.93,775.91L387.19,773.77L387.88,776.03L391.76,780.72L392.49,780.21L392.3,778.23L394.09,775.57L394.16,773.43L395.47,773.35L395.89,774.86L397.13,775.46L399.47,774.72L400.27,776.11L401.09,775.94L400.25,773.33L400.63,772.01L403.32,772.57L403.07,771.27L403.5,768.98L405.35,769.19L405.9,769.79L407.98,769.75L408.83,768.16L409.69,767.71L413.85,767.59L416.94,766.49L416.82,768.17L418.65,770.84L419.36,771.18L424.77,772.32ZM419.41,802.03L419.64,801.47L419.06,801.15L418.72,801.67Z" fill="#dadada" stroke="#fff" stroke-width="0.5" id="IT" data-name="Italy"/>
    <path d="M199.94,486.23L204.88,485.14L203.28,488.68L206.55,490.26L206.09,495.33L208.68,494.68L209.65,497.77L212.53,497.99L215.03,500.43L213.55,502.92L215.3,506.88L215.16,508.87L213.17,509.67L213.17,512.08L210.96,514.79L208.38,516.24L207.74,519.7L204.02,522.41L200.31,523.09L195.89,525.73L191.35,530.12L182.14,532.83L181.11,535.95L175.58,538.21L170.91,537.6L166.77,535.93L163.49,535.6L160.39,532.43L155.28,528.88L153.69,530.25L144.62,530.63L145.38,527.88L148.93,526.45L150.69,524.04L149.76,522.09L149.77,518.44L147.15,517.14L147.55,514.81L145.72,513.32L138.83,512.78L134.67,514.13L133.51,512.06L144.02,509.05L150.22,508.63L149.06,507.21L146.24,506.58L145.67,505.31L150.11,502.08L149.33,500.31L142.31,498.66L134.5,501.93L131.96,500.43L132.49,498.14L134.43,495.14L136.03,494.84L135.77,489.31L138.6,487.14L141.06,488.99L141.4,490.99L144.51,490.65L145.89,489.3L143.06,487.7L141.77,484.37L142.41,482.09L146.04,482.3L152.31,488.92L154.83,493.02L153.56,497.62L153.82,500.67L157.22,501.23L157.68,498.95L159.24,497.19L161.48,498.84L162.25,496.03L162.25,490.01L164.83,489.7L168.22,494.88L169.47,494.21L169.87,489.19L173.56,487.15L174.61,487.39L177.14,491.33L178.37,487.61L181.43,487.89L183.97,491.2L187.33,486.73L190.5,488.11L193.01,485.26L192.12,481.98L194.41,480.48L196.47,480.64Z" fill="#dadada" stroke="#fff" stroke-width="0.5" id="IS" data-name="Iceland"/>
    <path d="M272.96,679.86L271.96,681.21L273.55,686.65L273.61,690.27L274.45,695.16L273.64,696.71L272.96,700.12L271.04,702.67L272.12,703.92L270.27,704.67L268.54,704.39L267.69,705.04L262.7,705.81L261.63,707.33L260,707.89L257.87,709.44L256.09,708.64L256.27,710.38L252.63,712.33L248.85,713.42L247.55,713.03L244.63,713.61L246.63,711.01L244.13,711.54L244.89,709.86L240.67,709.63L240.38,708.74L243.69,705.33L240.29,705.35L241.69,703.61L243.83,704.04L244.08,701.91L246.58,699.92L248.58,699.66L252.87,698.36L251.25,697.38L249.8,698.94L246.78,698.69L248.09,695.56L247.55,694.89L248.83,692.94L251.2,692.1L250.07,690.94L247.49,691.14L244.94,689.04L242.63,688.81L242.43,687.03L244.29,686.47L244.11,684.67L246.64,683.63L246.64,682.64L244.01,682.86L244.47,680.99L243.37,677.35L248.7,677.05L250.03,678.24L251.15,677.19L254.4,677.96L254.12,676.4L257.2,674.24L257.96,672.44L255.43,672.87L253.02,671.89L256.05,669.07L255.78,668.03L256.85,665.56L260.54,664.82L264.9,662.72L267.13,664.3L265.12,666.3L263.88,667.18L262.52,670.72L259.89,672.1L260.62,673.38L258.66,674.18L258.08,675.5L260.14,678.17L262.08,679.12L264.05,679.43L265.62,677.84L266.44,675.58L267.33,676.03L269.58,680.26Z" fill="#dadada" stroke="#fff" stroke-width="0.5" id="IE" data-name="Ireland"/>
    <path d="M287.1,678.57L285.51,680.26L284.49,679.46L284.85,678.04L286.34,676L287.68,677.45Z" fill="#dadada" stroke="#fff" stroke-width="0.5" id="IM" data-name="Isle of Man"/>
    <path d="M494.95,751.08L495.9,751.05L496.66,752.83L498.48,754.27L499.94,754.55L500.78,756.46L499.21,758.19L496.19,759.01L493.92,761.6L493.88,762.87L492.89,763.92L492.24,765.84L489.96,769.84L489.98,770.81L488.59,771.91L487.27,775.37L486.4,776.07L484.81,775.87L483.06,777.3L482.24,776.92L480.15,777.58L479.52,777.2L474.58,777.05L473.5,778.25L472.06,778.98L471.11,778.62L469.68,779.58L467.81,779.85L466.02,781.42L462.31,781.39L460.3,780.75L459.52,779.78L457.2,778.85L455.02,776.69L452.79,774.1L450.98,773.15L449.92,771.56L449.16,769.07L447.66,769L448.91,767.75L450.48,767.35L450.79,766.02L450.2,764.86L450.33,763.19L451.81,762.27L451.94,760.4L450.32,759.85L451.25,758.79L452.79,759.5L455.29,759.25L455,757.74L455.92,755.77L457.25,755.95L459.74,758.06L460.73,758.52L463.73,758.6L468.26,758.33L468.8,755.84L469.75,755.25L474.08,754.54L475.32,753.22L477.46,754.3L480.87,752.37L482.09,749.64L485.04,749.42L486.61,749.89L489.62,749.34L492.09,751.87Z" fill="#dadada" stroke="#fff" stroke-width="0.5" id="HU" data-name="Hungary"/>
    <path d="M459.99,812.85L461.35,813.41L464.97,816.03L466.01,816.45L466.64,817.8ZM456.28,810.41L452.25,810.44L452.39,809.88ZM453.08,808.84L450.25,808.34L450.45,807.6L453.46,807.99ZM435.1,793.73L434.56,793.62L433.64,790.64L434.93,790.31ZM437.62,790.23L436.65,790.47L434.7,788.88L436.2,788ZM469.68,779.58L469.17,780.66L470.86,784.11L470.46,785.54L473.01,787.01L473.46,788.06L470.92,788.46L471.21,790.27L470.48,791.42L469.15,791.27L467.78,789.12L464.82,788.49L462.57,788.41L461.13,789.11L460.17,788.22L459.04,788.62L455.75,788.07L454.13,786.91L453.12,787.79L451.09,787.57L449.23,789.88L447.16,787.87L445.27,787.99L444.87,792.57L447.95,795.78L448.61,798.61L451.56,801.9L452.52,803.36L455.43,806.2L456.91,806.96L457.06,808.48L459.66,811.3L459.35,812.41L457.35,810.52L455.78,809.49L454,807.54L451.63,806.77L450.02,805.91L446.82,806.16L446.48,804.69L443.01,801.95L440.56,799.08L440.07,798.16L441.22,796.77L438.96,794.36L438.28,793.22L438.37,790.29L437.97,789.08L435.58,786.67L434.29,786.18L433.38,786.84L433.12,788.21L431,791.8L430.18,791.78L428.37,788.78L427.49,784.62L427.97,784.23L430.32,785.21L431.94,784.66L434.17,784.62L435.45,782.79L437.02,784.32L439.97,784.97L441.76,784.78L441.27,781.81L444,780.68L444.32,778.26L444.08,776.54L448.71,774.59L449.45,772.75L450.98,773.15L452.79,774.1L455.02,776.69L457.2,778.85L459.52,779.78L460.3,780.75L462.31,781.39L466.02,781.42L467.81,779.85Z" fill="#dadada" stroke="#fff" stroke-width="0.5" id="HR" data-name="Croatia"/>
    <path d="M508.42,887.37L509.85,887.37L510.88,886.8L512.03,889.02L515.23,888.44L517.43,888.58L518.22,889.19L521.13,889.58L523.13,889.17L523.24,891.14L527.58,889.94L527.15,892.09L526.53,892.34L523.9,892.27L519.02,892.9L515.84,893.14L515.13,891.66L513.21,890.98L508.66,890.16L506.74,890.26L506.15,889.69L506.21,887.38L507.35,886.71ZM539.67,883.57L538.67,883.31L538.68,881.23L540.23,879.54L542.24,878.76L542.7,879.3L542.03,880.86ZM521.68,873.47L520.98,873.84L520.24,872.46L521.52,871.22L522.01,871.66ZM531.69,865.15L533.38,865.56L531.85,866.8L530.24,865.45ZM485.21,865.22L484.67,866.6L483.77,865.83L484.19,864.74ZM517.34,865.67L516.5,865.56L515.17,864.29L517.07,864.23ZM483.05,859.46L483.14,860.61L484.43,861.87L484.21,862.58L482.35,862.22L481.45,859.93ZM525.98,861.11L525.23,861.68L524.25,860.6L525.17,859.76L524.07,858.21L525.34,857.28L526.41,858.61L526.46,860.26ZM483.63,857.21L482.62,856.67L483.23,855.11L483.89,855.3ZM505,853.69L505.44,854.78L508.62,856.43L510.35,856.58L511.14,857.88L511.04,858.66L511.73,861.09L512.39,861.67L513.99,861.82L514.1,863.08L513.51,863.58L511.24,862.11L509.89,859.4L507.69,859.28L506.84,858.86L506.58,857.77L503.72,855.27L501.97,854.55L502.89,853.25L504.2,852.93ZM528.45,849.95L528.32,850.55L529.77,852.17L528.91,853.55L526.5,853.02L524.51,851.87L524.53,850.37L525.44,850.4L526.53,849.5L527.96,849.4ZM478.87,848.9L477.35,848.61L476.76,847.35L475.51,845.92L476.99,844.97L477.76,845.71L477.5,847.01L477.9,848.52ZM520.83,843.3L520.2,845.09L517.89,844.63L517.86,843.13L520.33,842.97ZM515.64,836.81L514.63,837.18L513.61,836.48L514.46,834.97L515.74,835.9ZM525.55,835.66L524.11,834.45L519.37,833.53L518.22,832.88L515.79,834.31L513.31,833.37L511.41,835.04L510.22,835.68L507.72,835.44L507.57,836.17L508.63,837.54L508.53,838.84L507.39,840.2L509.32,841.95L508.29,842.9L506.95,840.84L505.08,840.43L504.19,840.91L500.94,839.03L500.27,837.19L498.85,838.05L498.95,839.37L498.37,841.91L498.55,842.75L500.46,845.16L501.11,846.91L502.56,848.3L504,850.36L504.31,851.51L502.68,851.94L503.01,850.68L501.69,849.93L500.49,850.67L501.48,852.97L500.2,854.27L499.97,855.28L503.73,856.68L504.64,858.04L506.21,858.4L507.1,859.77L509.32,860.55L509.77,861.89L510.01,866.16L508.62,865.49L506.29,863.17L503.26,863.69L502.12,864.25L502.9,865.31L503.3,867.05L504.47,867.27L505.58,868.82L503.01,869.87L502.5,868.82L499.98,867.39L499.91,869.28L500.58,870.29L501.71,873L502.32,875.35L501.61,877.76L500.02,875.25L498.68,875.31L497.74,877.37L494.54,872.87L493.57,873.25L493.07,875.72L491.87,874.49L490.65,872.36L490.62,871.19L491.51,870.11L490.56,867.83L488.66,866.56L488.34,865.52L487.22,864.08L488.5,863.01L489.24,861.32L491.24,861.54L492.55,860.01L493.55,860.08L495.82,861.4L498.27,862.16L500.18,863.47L500.91,862.77L502.7,862.55L502.91,861.53L501.22,861.27L498.48,859.84L497.22,858.91L495.69,859.76L493.64,859.17L489.79,860.08L489.14,859.22L487.51,859.84L486.97,859.45L486.02,856.75L484.34,855.21L484.34,854L486.67,854.43L487.01,852.97L484.36,853.19L481.92,850.7L480.61,849.97L479.75,847.76L478.26,846.09L479.88,846.66L481.25,844.74L480.69,843.34L481.82,842.46L483.4,841.92L484.57,838.56L485.7,838.06L486.33,836.36L485.81,834.38L490.59,834.19L492.19,833.34L493.36,831.72L495.36,831.18L497.78,831.6L499.59,830.98L499.83,829.58L501.09,829.33L502.97,829.48L503.63,828.82L506.72,828.8L510.01,827.34L512.6,827.37L513.64,827.07L514.24,828.22L515.64,829.13L516.21,828.73L518.45,829.54L519.38,830.29L523.55,829.39L524.64,829.58L526.3,828.82L526.36,827.4L525.75,825.81L526.81,825.07L527.75,825.35L529.79,826.56L530.13,828.65L527.83,830.35L527.83,833.3L526.09,835.42Z" fill="#dadada" stroke="#fff" stroke-width="0.5" id="GR" data-name="Greece"/>
    <path d="M301.97,738.09L301.7,738.88L300.93,738.41Z" fill="#dadada" stroke="#fff" stroke-width="0.5" id="GG" data-name="Guernsey"/>
    <path d="M685.21,823.53L683.27,825.97L684.24,827.54L686.69,829.25L686.75,831.17L685.43,832.1L683.18,830.78L682.09,831.09L680.22,830.5L679.62,829.31L676.21,828.15L674.03,829.8L672.77,830.63L669.89,830.84L667.96,830.61L664.57,831.47L661.79,831.72L661.17,830.85L659.96,830.76L659.52,829.64L656.69,826.95L654.97,827L654.17,828.25L652.18,827.76L649.94,827.67L649.14,828.33L646.69,827.44L648.19,825.47L648.67,822.69L647.89,820.82L646.52,815.39L645.98,814.55L643.7,813.59L643.18,812.49L641.41,811.07L638.97,810.45L634.69,807.24L636.04,805.62L638.93,806.25L639.94,806.01L643.35,807.73L645.5,808.17L647.24,809.4L650.92,809.71L653.81,809.35L654.96,810.09L656.48,809.94L658.29,810.77L659.05,811.87L662.72,813.41L664.48,814.45L664.14,815.84L665.85,816.38L670.15,814.44L671.23,814.59L672.22,815.84L673,814.36L675.65,815.51L676.71,816.77L678.42,816.7L679.71,817.35L679.02,820.21L681.49,822L683.51,822.48Z" fill="#dadada" stroke="#fff" stroke-width="0.5" id="GE" data-name="Georgia"/>
    <path d="M395.88,813.83L395.68,815.4L396.24,816.53L396.43,821.01L395.26,823.15L395.21,825.2L393.58,828.82L391.3,827.45L390.61,826.7L391.23,825.52L389.91,824.88L390.09,823.16L389.11,822.8L389.78,821.37L388.72,820.06L389.87,816.55L392.46,815.36L393.2,814.61L394.77,814.24L394.71,812.36L395.75,811.96ZM366.98,737.56L368.31,738.57L370.52,738.09L371.32,738.59L372.22,738.71L374.39,742.1L375.61,741.54L376.63,742.54L379.99,742.2L381.24,743.28L385.34,744.34L385.39,745.37L383.02,748.35L381.98,752.55L381.04,755.09L381.11,756.94L380.6,759.64L381.28,760.59L379.75,762.18L378.05,762.44L376.88,761.78L375.68,762.89L376.46,763.71L373.52,767.38L372.2,768.02L371.84,770.23L369.89,771.88L369.1,773.96L369.31,777.15L370.77,775.95L370.47,775.04L371.99,773.93L374.57,774.1L375.02,775.7L374.67,776.94L376.62,779.64L374.93,780.89L376.57,784.41L377.66,785.52L377.07,787.32L375.22,788.47L373.54,788.67L374.41,790.85L376.4,791.89L376.7,793.11L375.23,795.37L376.2,797.9L379.36,799.57L381.15,799.12L381.76,800.05L380.23,802.43L380.32,803.49L379.89,803.66L379.7,803.44L379.42,803.87L377.88,804.66L375.4,807.05L374.24,807.74L373.77,808.95L372.5,809.94L369.54,810.98L367.14,810.7L366.06,809.84L363.98,809.3L363.3,808.05L361.74,808.01L361.27,806.98L358.54,807.74L354.24,806.33L353.38,805.37L352.27,805.7L351.28,806.79L347.17,809.68L345.54,812.66L345.85,816.12L346.79,817.81L344.9,817.43L341.75,818.72L338.88,817.93L337.56,818.63L335,817.05L335.04,815.98L333.4,815.57L332.83,816.06L332.21,815.06L327.1,813.41L326.59,815.07L321.32,815.07L319.3,813.62L317.05,813.9L315.67,812.4L314.33,812.29L311.58,811.11L310.46,811.36L310.6,809.18L307.92,808.27L307.6,807.37L308.87,807.05L310.02,805.69L311.11,800.74L311.89,794.83L312.34,788.19L313.18,784.05L312.49,782.34L313.3,780.99L313,779.65L312.67,775.28L310.74,774.85L307.66,772.98L305.52,769.6L305.28,768.34L305.84,767L304.44,765.56L305.14,764.4L302.05,763.84L302.64,762L301.65,761.35L299.95,761.5L299.82,760.21L298.44,760.49L296.91,759.4L291.1,757.74L287.88,757.91L286.97,756.2L285.4,754.84L287.37,754.33L286.31,753.15L287.25,751.52L284.69,751.57L284.68,749.49L286.17,748.54L289.86,747.5L292.56,747.47L294.46,746.25L296.34,745.92L298.13,746.52L300.56,749.52L302.49,748.2L305.36,748.24L306.72,747.63L307.36,748.42L310.39,748.28L309.39,746.34L309.25,741.6L308.41,740.27L307,736.87L307.11,735.8L311.79,735.85L312,738.08L312.73,739.37L317.57,739.77L320.37,740.47L321.56,740.07L323.82,738.47L322.5,737.33L323.11,735.57L326.47,733.63L328.88,733.06L331.4,731.99L332.66,730.88L333.79,728.37L334.01,722.89L334.74,721.08L336.62,719.77L341.42,718.44L341.98,721.19L343.88,723.23L345.97,722.39L346.98,723.83L347.28,725.45L350.05,726.36L351,727.76L353.32,728.03L354.33,728.95L354.35,732.45L355.85,732.63L358.1,731.93L359.76,734.54L360.85,734.66L362.98,735.87L364.77,737.89Z" fill="#dadada" stroke="#fff" stroke-width="0.5" id="FR" data-name="France"/>
    <path d="M269.72,558.42L269.53,560.67L266.73,560.67L265.49,557.45L267.16,556.94Z" fill="#dadada" stroke="#fff" stroke-width="0.5" id="FO" data-name="Faroe Islands"/>
    <path d="M548.46,428.7L545.33,430.74L546.79,434.14L544.58,440.23L546.26,446.56L551.42,449.24L552.83,452.02L556.39,457.01L556.1,459.91L553.21,464.46L549.41,471.59L549.46,474.02L552.37,480.3L553.35,483.73L555.8,488.89L557.25,494.74L557.31,496.74L554.33,497.82L554.43,500.68L553.66,505.37L555.08,507.53L553.46,510.12L554.86,513.15L557.13,513.87L557.5,516.07L556.45,517.66L557.41,521.15L560.38,523.49L560.5,527.36L556.99,533.25L559.84,536.51L565.81,541.67L568.38,546.05L568.57,547.25L566.63,552.68L563.89,556.81L560.99,560.11L554.13,569.75L550.7,573.98L544.09,580.31L539.32,586.09L536.69,587.22L534.96,586.05L529.42,588.05L526.84,588.15L523.01,590.35L522.55,589.31L518.63,591.5L514.28,592.76L512.26,593.89L507.4,595.09L505.38,594.77L503.17,596.98L503.3,594.21L500.53,591.62L500.13,593.35L497.54,594.09L497.59,591.39L498.43,588.9L495.94,588.24L493.4,586.66L492.39,585.16L490.89,586.17L489.5,585.13L488.91,579.17L489.84,575.89L489.98,569.65L490.83,569.01L489.1,563.65L488.09,562.41L488.86,558.49L488.62,556.49L487.38,555.28L486.9,551.74L487.62,548.88L491.18,544.6L490.35,541.74L494.86,541.05L496.42,539.89L495.82,537.67L501.86,530.9L503.7,529.58L508.99,522.81L511.75,518.44L513.95,513.21L519.19,510.44L520.33,509.36L519.41,506.87L520.13,500.58L519.3,499.31L514.13,495.3L510.8,494.39L508.85,487.79L507.63,486.96L507.24,481.3L508.52,479.42L509.49,474.79L507.05,469.65L506.63,467.3L507.81,464.38L507.49,462.46L505.41,461.9L505.95,459.03L505.68,453.14L506.75,451.5L502.51,445.13L500.04,442.3L493.9,439.54L489.73,435.89L483.13,428.37L487.09,427.4L486.5,425.08L488.18,423.15L490.96,423.22L496.26,432.31L497.13,435.26L504.28,436.78L507.28,435.39L508.43,433.4L516.95,437.98L520.2,432.17L523.27,429.39L523.27,424.09L525.33,414.7L529.35,408.75L533.92,408.99L537.7,405.84L540.04,405.39L544.12,410.85L549.84,414.27L551.34,418.73L547.52,425.3ZM495.29,588.72L496.69,588.95L495.94,591.95L494.52,590.05Z" fill="#dadada" stroke="#fff" stroke-width="0.5" id="FI" data-name="Finland"/>
    <path d="M541,602.57L542.08,604.26L540.1,605.74L539,609.19L537.08,611.71L536.41,614.02L537.23,618.5L536.89,620.96L538.97,627.31L537.31,627.93L536.2,629.87L535.82,631.9L532.28,630.72L529.41,631.86L527.57,630.83L525.17,627.36L523.62,626.91L520.07,624.39L518.27,624.03L512.1,626.88L513.21,623.4L513.72,619.71L512.21,619.31L510.48,621.02L507.76,619.61L507.16,617.44L505.74,615.15L505.92,613.29L505.13,611.19L505.78,609.99L505.62,607L507.87,605.78L510.23,605.53L512.56,602.74L514.14,603.01L516.45,601.98L520.88,602L521.4,600.18L523.62,600.24L528.85,601.49L530.13,601.49L532.87,603.08L540.06,603.65ZM501.15,612.61L499.92,612.7L498.16,614.67L497.14,612.06L498.51,608.75L501.04,610.11ZM498.75,615.71L501.47,615.94L504.04,617.78L499.63,621.55L497.82,621.47L495.11,623.26L492.99,621.08L494.55,617.86L496.49,616.32Z" fill="#dadada" stroke="#fff" stroke-width="0.5" id="EE" data-name="Estonia"/>
    <path d="M181.58,958.55L180.82,960L179.86,959.46ZM201.05,955.56L201.14,957.98L199.81,959.11L198.63,958.78L197.87,957.86L197.85,956.91L198.84,955.5ZM187.08,956.67L185.99,955.82L186.51,955.06L187.51,955.48ZM193.74,953.49L193.08,955.52L192.11,956.58L191.21,956.81L190.14,955.54L189.27,953.85L192.31,953.2L193.86,951.91L195.43,952.17ZM210.48,955.37L210.2,954.95L211.99,950.58L213.14,950.3L213.37,951.67L212.58,954.62ZM182,952.48L180.69,950.12L181.26,949.35L182.7,949.87L182.59,951.81ZM214.24,948.75L213.12,949.13L213.68,947.46L214.76,946.89L216.3,946.6L216.11,947.9ZM332.96,854.09L331.49,854.49L332.21,852.46L333.9,852.06L334.36,852.89ZM346.28,845.27L347.82,845.3L348.76,846.21L347.06,849.37L345.71,850.24L343.34,849.13L342.27,847.65L341.22,848.45L340.21,847.07L343.45,844.61L346.38,843.43ZM355.27,844.74L351.73,843.37L351.82,842.48L353.43,842.36L354.74,842.8ZM307.6,807.37L307.92,808.27L310.6,809.18L310.46,811.36L311.58,811.11L314.33,812.29L315.67,812.4L317.05,813.9L319.3,813.62L321.32,815.07L326.59,815.07L327.1,813.41L332.21,815.06L332.83,816.06L333.28,817.78L335,817.05L337.56,818.63L338.88,817.93L341.75,818.72L344.9,817.43L346.79,817.81L347.54,819.32L346.44,819.66L347.08,822.96L345.17,824.82L339.74,827.97L337.95,829.84L333.91,830.8L329.74,832.19L327.24,834.66L328.38,836.08L326.32,836.82L324.5,839.86L321.06,844.4L319.09,848.02L319.07,849.06L320.04,852.64L321.38,854.37L323.22,855.7L321.24,857.44L318.66,858.94L316.58,861.77L316.3,863.36L315.2,866.14L315.21,867.43L311.25,867.63L308.8,869.35L307.57,870.86L306.46,873.68L305.11,875.34L303.59,874.92L301.32,875.04L299.82,875.94L298.92,875.67L296.13,875.54L294.78,876.01L291.67,875.54L287.45,875.91L285.05,877.97L283,878.02L281.15,878.78L279.91,880.61L279.67,881.59L277.6,882.64L274.35,881.07L273.33,879.66L272.56,877.09L271.66,876.7L271.56,874.8L270.81,873.6L267.74,871.24L265.46,871.1L263.65,871.39L262.89,867.39L263.36,865.98L265.38,863.22L266.65,862.83L266,861.48L264.15,858.72L264.63,856.14L266.47,854.21L266.85,852.7L265.48,851.91L264.44,849.86L264.21,848.57L263.35,847.85L263.28,846.38L265.91,846.37L266.55,846.04L267.53,843.77L267.49,842.54L266.72,840.99L268.32,839.61L268.02,838.91L268.26,836.41L267.95,834.09L267.39,832.73L269.26,830.6L271.51,828.92L273,827.29L271.6,825.89L270.42,825.82L270.3,823.7L269.82,822.98L266.6,822.89L263.67,824.12L261.41,823.55L259.62,823.6L257.81,824.35L257.24,823.47L257.99,822.18L257.33,820.96L254.79,821.64L252.92,823L252.13,822.93L252.06,821.26L253.59,819.48L252.64,817.4L252.65,815.59L251.27,816.17L250.85,813.74L249.33,812L249.78,809.89L252.16,808.16L254.8,808.14L257.06,807.03L256.99,805.51L258.97,804.28L261.37,803.52L262.89,803.78L264.78,805.35L266.36,805.79L267.61,805.45L270.94,805.52L274.04,805.35L275.86,804.81L277.28,805.49L280.02,805.8L281.67,806.36L286.23,807.28L287.88,807.3L291.19,806.38L293.42,806.17L294.88,806.89L297.8,807.76L299.13,806.87L301.23,807.32L303.35,808.23L306.05,808.05Z" fill="#dadada" stroke="#fff" stroke-width="0.5" id="ES" data-name="Spain"/>
    <path d="M313.3,723.49L311.42,724.75L309.78,723.75L311.37,722.46ZM288.78,690.01L289.66,690.76L287.4,692.46L285.99,690.81L285.88,689.16L287.86,688.75ZM272.96,679.86L269.58,680.26L267.33,676.03L266.44,675.58L265.62,677.84L264.05,679.43L262.08,679.12L260.14,678.17L258.08,675.5L258.66,674.18L260.62,673.38L259.89,672.1L262.52,670.72L263.88,667.18L265.12,666.3L266.04,666.9L267.25,665.06L270.94,664.26L273.65,664.58L274.78,667.15L276.88,670.04L278.81,674.34L277.44,674.64L277.74,677.4L276.03,677.9L274.52,680.36ZM281.67,661.4L279.9,660.95L279.42,659.05L281.24,658.38ZM273.65,654.7L274.23,657.98L272.68,659.2L272.23,655.74ZM274.9,656.32L274.1,655.23L275.14,653.1L276.25,653.65ZM276.4,648.89L273.28,649.68L273.58,646.82L272.23,645.95L273.86,644.61L275.08,646.2L276.54,646.82ZM264.88,637.89L263.85,637.66L263.62,634.04L264.74,634.17ZM273.53,632.24L273.6,635.01L277.26,636.27L275.06,638.89L274.39,636.64L272.14,636.63L271.2,634.82L269.37,634.3L268.7,633.15L269.83,631.39L272.73,630.1ZM265.22,629.64L264.32,631.82L262.92,630.32ZM273.11,619.57L271.25,623.61L271.34,624.65L267.17,628.65L266.18,627.71L267.9,625.96L266.39,624.92L266.17,622.27L268.99,622.04L268.5,620.76L272.8,617.49ZM297.3,617.3L296.49,620.2L290.4,625.57L290.05,627.15L291.2,628.11L289.71,629.72L291.36,630.85L295,629.27L297.5,629.77L299.28,629.5L304.07,629.66L305.41,629.35L307.02,630.67L307.72,632.4L305.83,635.81L303.95,641.51L301.35,645.81L299.92,646.93L297.78,647.4L300.87,649.26L299.97,650.9L298.31,651.01L296.76,652.61L297.77,654.41L299.43,653.36L301.29,653.35L304.83,655.09L308.68,659.72L310.51,667.2L311.53,670.64L312.61,672.26L316.39,674.29L318.75,677.31L320.99,679.47L320.04,680.75L321.73,684.46L321.93,685.81L319.35,685.13L322.65,688.08L323.77,689.83L324.43,692.12L322.01,695.43L323.84,696.69L326.02,694.64L329.91,694.74L332.47,695.59L334.62,697.4L335.32,701.08L333.86,705.97L331.96,707.62L331.63,709.03L330.27,709.79L329.13,709.51L328.62,712.5L326.3,713.15L327.03,714.82L328.61,715.16L332.73,715.11L332.59,717.38L329.83,719.06L329.17,720.57L327.01,721.07L323.25,722.59L320.05,721.96L315.5,722.56L311.58,721.42L309.77,722.78L305.74,723.06L305.7,724.57L303.24,724.14L301.7,724.41L299.9,723.3L298.16,723.17L294.99,724.21L293.58,728.03L291.94,729.16L288.97,727.18L284.62,728.41L280.73,731.7L278.03,729.56L279.81,728.96L285.76,722.43L286.23,719.93L288,719.31L288.85,717.3L291.56,716.77L295.22,717.2L297.09,717.1L301.36,712.03L298.32,712.91L295.86,714.77L293.75,714.48L292.18,712.89L290.77,712.17L289.42,712.56L287.3,710.35L285.62,710.4L283.26,711.81L281.52,710.8L280.92,708.83L281.8,707.12L287.32,704.56L289.16,702.91L290.48,700.14L289.53,695.31L287.53,695.54L285.75,696.61L285.33,695.63L287.15,694.03L289.45,691.35L291.82,690.26L295.6,689.67L297.65,688.63L297.69,686.53L298.74,684.59L297.91,684.05L297.94,682.29L298.94,681.57L299.36,679.24L296.86,679.34L295.64,677.98L293.7,674.78L293.52,673.47L294.52,670.65L296.06,668.83L294.76,668.05L292.02,669.33L290.65,670.54L287.95,669.8L286.27,670.85L283.92,669.65L282.24,670.81L281.43,669.5L282.77,665.51L284.68,661.78L284.65,659.33L283.34,657.93L283.72,653.02L280.57,654.72L279.47,656.94L278.14,662.22L276.48,662.58L277.62,656.34L277.72,652.96L279.43,646.48L280.79,643.11L277.38,646.23L275.16,645.18L274.39,642.93L276.77,641.66L276.73,640.11L277.87,638.07L278.09,636.19L276.09,633.24L277.18,631.26L276.66,629.85L277.73,626.72L281.11,626.35L279.41,624.33L279.85,621.43L282.43,621.07L281.79,619.26L281.97,617.23L283.09,616.2L284.72,617.38L297.74,615.51ZM297.71,609.53L296.85,611.21L295.44,610.18L295.72,607.99ZM311.4,586.06L313.3,588.54L312.41,592.77L309.95,589.95L310.88,589.31L310.3,587.16Z" fill="#dadada" stroke="#fff" stroke-width="0.5" id="GB" data-name="United Kingdom"/>
    <path d="M410.61,669.04L413.57,670.18L413.78,671.92L411.36,672.6L408.06,670.65L408.24,668.37ZM439.79,667.26L436.63,666.16L437.26,663.49L440.14,665.58ZM405,659.17L406.37,663.15L406.1,665.73L404.84,666.84L403.42,666.89L399.86,665.33L398.84,662.66L398.86,660.47L402.19,659.15L403.91,659.89ZM420.07,656.73L420.08,658.13L418.12,659.47L417.3,661.15L418.63,662.26L418.84,663.64L416.31,664.98L416,670.07L414.54,670.65L413.58,668.71L412.9,665L410.02,664.76L409.12,663.05L409.27,661.17L407.62,657.62L410.31,657.19L411.5,654.53L413.23,655.02L413.19,657.51L414.2,657.95L415.1,655.19L414.57,654.18L417.33,652.07L420.14,652.84L419.72,654.87ZM397.91,669.94L396.94,669.53L394.8,670.2L391.36,668.96L389.54,668.87L389.53,665.43L389.11,661.82L385.32,659.31L385.87,653.98L385.24,651.77L385.58,645.17L388.62,645.83L392.64,642.5L393.66,643.82L394.12,639.38L392.07,639.31L390.34,643.48L387.96,644.35L386.39,643.07L386.51,641.67L389.13,637.94L391.75,637.37L394.46,637.44L396.46,636.19L399.66,631.12L401.98,630.6L403.43,631.4L404.16,633.06L404.05,636.04L402.27,639.56L402.17,644.97L403.79,646.4L406.58,646.38L407.21,647.49L406.66,649.58L404.81,650.9L403.29,649.85L402.45,650.74L401.38,655.62L396.75,660.79L397.37,663.91L395.67,667.02L397.17,667.25Z" fill="#dadada" stroke="#fff" stroke-width="0.5" id="DK" data-name="Denmark"/>
    <path d="M432.95,682.76L430.69,682.65L430.66,681.09L432.92,681.71ZM429,675.92L427.22,676.53L426.29,677.76L424.93,676.69L424.82,673.74L425.32,672.47L426.75,671.65L428.69,673.86ZM397.91,669.94L400.12,671.99L400.18,673.24L401.61,675.57L402.77,675.17L405.68,676.82L407.89,675.97L407.85,678.62L406.3,680.04L407.14,681.11L408.6,680.92L410.91,681.78L414.02,679.1L416.48,678.8L420.12,674.78L423.67,675.54L424.6,677.27L426.95,679.17L429.11,679L430.22,682.99L431.47,684.13L433.3,684.64L434.52,690.51L434.16,692.83L432.28,695.79L435.3,698.8L436.12,700.31L435.62,702.48L436.8,704.43L437.17,706.03L435.98,709.2L437.05,711.79L436.95,713.1L438.37,713.86L439.23,716.5L438.82,718.47L437.61,721.4L436.94,721.95L435.24,719.53L434.16,720.91L430.48,722.62L427.57,723.46L427.14,724.4L425.3,724.89L423.57,725.96L423.18,726.87L421.6,726.69L419.15,727.69L417.78,729.75L417.77,731.45L419.19,732.5L419.51,733.75L418.67,735.12L420.56,738.49L421.98,740.08L422.79,740.06L424.54,742.13L427.73,744.5L429.82,746.8L429.59,748.93L428.73,749.69L427.25,748.99L426.65,751.21L421.99,753.95L421.56,754.95L423.08,757.11L422.64,759.09L423.71,759.35L423.55,761.92L421.74,760.92L420.98,759.7L419.39,760.07L417.15,759.23L417.06,760.28L413.4,760.69L410.86,761.81L410.11,762.53L407.63,762.84L406.79,761.43L403.32,761.18L402.4,763.82L400.71,763.06L400.22,761.97L397.98,760.78L396.23,761.38L393.55,759.68L391.19,759.85L389.13,758.57L387.45,759.48L387.54,760.62L385.84,760.42L383.72,760.92L381.28,760.59L380.6,759.64L381.11,756.94L381.04,755.09L381.98,752.55L383.02,748.35L385.39,745.37L385.34,744.34L381.24,743.28L379.99,742.2L376.63,742.54L375.61,741.54L374.39,742.1L372.22,738.71L371.32,738.59L372.45,734.41L370.63,733.52L369.71,732.28L369.54,730.49L370,729.12L371.48,728.1L371.3,726.43L370.22,725.85L370.48,724.65L368.58,722.75L369.01,720.83L367.81,719.85L369.65,717.81L369.22,716.86L370.14,713.54L368.22,710.09L369.93,708.59L371.42,709.3L374.44,708.2L374.49,705.82L376.28,704.45L376.74,702.22L374.49,701.14L374.49,698.95L376.56,698.96L377.95,694.21L378.01,690.52L376.88,689.3L377.3,686.92L378.69,685.27L384.36,685.15L386.21,688.39L386.65,686.56L388.51,686.92L388.43,683.95L389.14,682.71L391.32,683.23L391.39,677.56L389.36,675.72L391.75,674.78L391.79,673.83L389.63,670.39L389.54,668.87L391.36,668.96L394.8,670.2L396.94,669.53Z" fill="#dadada" stroke="#fff" stroke-width="0.5" id="DE" data-name="Germany"/>
    <path d="M437.61,721.4L438.97,721.06L439.05,719.47L441.13,720.17L441.88,721.99L444.82,722.88L446.99,724.46L449.15,723.92L450.22,724.93L448.58,726.78L452.25,730.78L454.71,728.79L453.74,726.89L455.95,727.34L458.01,728.85L460.4,728.31L459.38,730.04L461.61,732.3L462.81,731.53L464.99,733.01L466.99,733.43L467.25,734.91L468.91,736.65L469.11,737.89L467.26,738.13L465.45,740L463.85,740.94L463.27,743.24L460.7,745.35L458.54,746.07L456.24,745.68L455.26,746.63L454.4,748.79L453.85,747.55L450.67,746.4L449.81,747.13L447.38,746.94L445.56,745.64L444.59,745.68L442.26,744.53L438.89,744.21L438.5,746.74L437.71,746.71L436.69,748.78L435.1,748.47L434.15,749.06L431.66,748.75L431.18,747.68L429.82,746.8L427.73,744.5L424.54,742.13L422.79,740.06L421.98,740.08L420.56,738.49L418.67,735.12L419.51,733.75L419.19,732.5L417.77,731.45L417.78,729.75L419.15,727.69L421.6,726.69L423.18,726.87L423.57,725.96L425.3,724.89L427.14,724.4L427.57,723.46L430.48,722.62L434.16,720.91L435.24,719.53L436.94,721.95Z" fill="#dadada" stroke="#fff" stroke-width="0.5" id="CZ" data-name="Czechia"/>
    <path d="M591.51,886.82L587.42,889.72L587.34,891.16L588.27,892.62L585.53,892.8L584.08,894.36L582.38,895.2L580.96,895.41L579.59,896.55L579.01,895.74L577.65,895.86L575.73,895.09L574.7,892.96L575.28,892.03L577.33,890.76L579.11,890.78L579.59,888.77L583.64,889.29L584.81,889.12L588.38,887.97L591.1,886.47Z" fill="#dadada" stroke="#fff" stroke-width="0.5" id="CY" data-name="Cyprus"/>
    <path d="M396.23,761.38L397.02,762.05L396.25,764.31L395.94,766.72L396.66,766.77L398.74,767.34L399.92,768.74L401.36,769.01L402.69,767.6L403.5,768.98L403.07,771.27L403.32,772.57L400.63,772.01L400.25,773.33L401.09,775.94L400.27,776.11L399.47,774.72L397.13,775.46L395.89,774.86L395.47,773.35L394.16,773.43L394.09,775.57L392.3,778.23L392.49,780.21L391.76,780.72L387.88,776.03L387.19,773.77L384.93,775.91L385.27,776.99L384.24,778.63L382.63,779.69L380.68,779.05L377.47,780.15L376.62,779.64L374.67,776.94L375.02,775.7L374.57,774.1L371.99,773.93L370.47,775.04L370.77,775.95L369.31,777.15L369.1,773.96L369.89,771.88L371.84,770.23L372.2,768.02L373.52,767.38L376.46,763.71L375.68,762.89L376.88,761.78L378.05,762.44L379.75,762.18L381.28,760.59L383.72,760.92L385.84,760.42L387.54,760.62L387.45,759.48L389.13,758.57L391.19,759.85L393.55,759.68Z" fill="#dadada" stroke="#fff" stroke-width="0.5" id="CH" data-name="Switzerland"/>
    <path d="M366.23,722.45L367.04,722.7L368.58,722.75L370.48,724.65L370.22,725.85L371.3,726.43L371.48,728.1L370,729.12L369.54,730.49L368.44,729.92L366.63,732.94L366.47,734.29L367.69,736.27L366.98,737.56L364.77,737.89L362.98,735.87L360.85,734.66L359.76,734.54L358.1,731.93L355.85,732.63L354.35,732.45L354.33,728.95L353.32,728.03L351,727.76L350.05,726.36L347.28,725.45L346.98,723.83L345.97,722.39L343.88,723.23L341.98,721.19L341.42,718.44L344.83,716.34L347.88,714.93L348.83,716.63L349.68,716.08L352.2,717.06L354.32,715.82L354.74,714.82L356.91,713.72L359.61,714.61L361.26,713.99L361.58,715.32L363.23,716.41L364.78,716.22L367.28,718.09Z" fill="#dadada" stroke="#fff" stroke-width="0.5" id="BE" data-name="Belgium"/>
    <path d="M542.06,651.73L543.13,652.95L545.31,652.44L547.12,654.54L549.41,653.43L551.66,654.59L551.49,656.74L552.51,658.13L556.06,655.89L558.39,655.9L560.13,656.71L561.46,658.39L563.66,659.72L563.61,662.1L562.94,663.74L564.22,666.87L563.06,668.72L562.82,670.51L565.34,672.34L564.97,674.45L565.84,674.98L567.55,678.43L570.59,680.3L570.95,681.03L570.3,683.56L573.79,683.95L575.74,685.12L575.9,687.05L577.59,688.35L577.73,689.82L573.33,693.02L571.04,692.83L569.62,691.59L567.66,691.65L566.42,693.99L568.58,696.83L568.98,700.26L568.91,703.09L570.37,705.79L567.1,705.73L566.1,706.43L564.24,706.48L561.78,709.43L560.73,712.18L561.51,715.21L560.82,716.34L559.17,715.59L557.82,713.67L553.06,714.22L551.44,714.87L549.79,711.92L545.97,713.94L545.59,712.86L542.33,712.04L540.98,712.64L539.79,712.23L535.18,711.97L534.18,710.22L528.79,709.44L524.65,708.17L519.5,707.86L512.41,708.75L510.57,711.32L509.19,712.32L507.28,711.62L506.49,713.17L506.01,710.75L506.65,709.49L506.85,706.56L506.43,705.76L503.29,703.8L503.34,702.76L505.5,700.01L508.36,698.56L508.92,697.19L508.69,693.85L507.92,690.67L506.44,686.36L505.54,681.85L507.49,682.21L511.07,681.71L512.06,682.47L514.44,681.31L515.59,681.38L516.04,679.46L517.77,679.27L518.81,678.18L521.02,677.13L521.89,679.18L523.27,678.95L522.91,677.13L521.69,676.61L523.08,673.47L523.06,671.4L524.14,668.66L526.61,667.51L527.52,665.65L529.94,665.78L531.31,663.81L528.82,662.86L529.88,658.37L531.68,657.79L533.48,656.1L537.59,656.54L538.1,654.97L540.09,652.66Z" fill="#dadada" stroke="#fff" stroke-width="0.5" id="BY" data-name="Belarus"/>
    <path d="M470.48,791.42L472.28,790.93L473.22,791.54L472.71,793.33L471.61,795.19L471.61,797.66L473.08,798.5L475,800.48L474.73,801.1L472.34,801.34L474.25,804.18L473.96,805.71L471.95,806.02L469.96,806.41L470.71,807.91L469.26,808.04L467.87,809.28L467.48,811.46L466.07,812.09L466.24,814.14L466.85,815.23L466.01,816.45L464.97,816.03L461.35,813.41L459.99,812.85L459.35,812.41L459.66,811.3L457.06,808.48L456.91,806.96L455.43,806.2L452.52,803.36L451.56,801.9L448.61,798.61L447.95,795.78L444.87,792.57L445.27,787.99L447.16,787.87L449.23,789.88L451.09,787.57L453.12,787.79L454.13,786.91L455.75,788.07L459.04,788.62L460.17,788.22L461.13,789.11L462.57,788.41L464.82,788.49L467.78,789.12L469.15,791.27Z" fill="#dadada" stroke="#fff" stroke-width="0.5" id="BA" data-name="Bosnia and Herzegovina"/>
    <path d="M545.48,803.76L545.3,806.36L544.54,807.57L543.4,807.16L541.95,807.51L540.34,809.76L540.03,814.43L538.97,814.89L536.86,817.42L538.62,818.67L540.76,821.87L541.01,822.7L539.95,822.52L537.26,823.21L535.38,821.53L533.16,821.76L532.17,822.46L530.06,822.74L529.24,824.2L528.06,824.46L527.75,825.35L526.81,825.07L525.75,825.81L526.36,827.4L526.3,828.82L524.64,829.58L523.55,829.39L519.38,830.29L518.45,829.54L516.21,828.73L515.64,829.13L514.24,828.22L513.64,827.07L512.6,827.37L510.01,827.34L506.72,828.8L503.63,828.82L502.97,829.48L501.09,829.33L501.36,826.51L501.79,825.35L500.47,822.44L498.48,821.27L496.61,819.06L498.02,817.71L497.33,815.71L497.57,813.44L499.45,813L501.29,810.71L501.56,809.74L499.93,807.95L498.26,806.87L497.01,804.14L496.78,802.46L497.21,800.88L498.59,800.14L499.44,798.36L501.97,800.11L500.71,801.53L501.11,802.76L503.5,802.33L505.93,802.55L509.19,803.28L511.35,803.53L512.95,803.19L518.66,804.36L521.3,804.53L523.82,803.49L524.72,802.37L526.93,800.88L529.07,800.04L533.75,799.13L536.4,800.73L539.99,801.1L541.29,802.89L544.21,803.78Z" fill="#dadada" stroke="#fff" stroke-width="0.5" id="BG" data-name="Bulgaria"/>
    <path d="M682.74,854.51L678.52,853.55L677.77,853.21L675.12,850.71L672.58,846.69L672.2,846.15L674.26,845.52L675.18,846.63L677.59,848.27L679.89,847.58L680.01,849.45L681.67,850.81L681.47,851.48ZM701.99,824.01L703.96,826.26L706.17,829.69L707.11,832.56L709.69,835.76L711.41,837.13L713.1,837.21L715.57,838.9L716.03,840.26L714.29,839.81L712.53,839.89L709.66,841.14L709.08,842.23L707.88,847.12L708.18,849.75L707.45,850.4L706.9,852.54L705.44,851.92L704.17,855.13L704.31,858.94L702.15,859.19L700.78,857.43L699.55,856.87L699.11,856.05L697.69,855.1L697.9,853.93L699.4,853.49L699.66,852.27L698.49,851.55L698.57,850.12L700.03,849.24L697.47,846.35L695.73,846.71L691.15,849.83L689.59,851.45L688.52,851.78L686.19,854.24L685.69,854.22L685.68,852.58L686.15,851.24L684.81,849.41L685.62,847.66L684.36,847.02L683.43,847.26L680.2,844.34L678.95,842.98L680.74,843.01L681.57,840.73L678.48,838.85L676.96,836.57L678.62,834.42L675.5,831.52L674.03,829.8L676.21,828.15L679.62,829.31L680.22,830.5L682.09,831.09L683.18,830.78L685.43,832.1L686.75,831.17L686.69,829.25L684.24,827.54L683.27,825.97L685.21,823.53L686.17,824.35L687.71,824.35L689.76,826.71L691.28,828.09L691.72,829.55L693.75,830.45L696.42,830.62L697.95,828.05L700.57,826.55Z" fill="#dadada" stroke="#fff" stroke-width="0.5" id="AZ" data-name="Azerbaijan"/>
    <path d="M454.4,748.79L453.69,750.65L454.55,753.52L455.92,755.77L455,757.74L455.29,759.25L452.79,759.5L451.25,758.79L450.32,759.85L451.94,760.4L451.81,762.27L450.33,763.19L450.2,764.86L450.79,766.02L450.48,767.35L448.91,767.75L447.66,769L446.75,769.7L446.6,771.12L445.11,770.73L442.54,771.67L439.11,771.71L437.2,773.15L435.22,774.09L428.92,772.92L424.77,772.32L419.36,771.18L418.65,770.84L416.82,768.17L416.94,766.49L413.85,767.59L409.69,767.71L408.83,768.16L407.98,769.75L405.9,769.79L405.35,769.19L403.5,768.98L402.69,767.6L401.36,769.01L399.92,768.74L398.74,767.34L396.66,766.77L396.25,764.31L397.02,762.05L396.23,761.38L397.98,760.78L400.22,761.97L400.71,763.06L402.4,763.82L403.32,761.18L406.79,761.43L407.63,762.84L410.11,762.53L410.86,761.81L413.4,760.69L417.06,760.28L417.15,759.23L419.39,760.07L420.98,759.7L421.74,760.92L423.55,761.92L423.71,759.35L422.64,759.09L423.08,757.11L421.56,754.95L421.99,753.95L426.65,751.21L427.25,748.99L428.73,749.69L429.59,748.93L429.82,746.8L431.18,747.68L431.66,748.75L434.15,749.06L435.1,748.47L436.69,748.78L437.71,746.71L438.5,746.74L438.89,744.21L442.26,744.53L444.59,745.68L445.56,745.64L447.38,746.94L449.81,747.13L450.67,746.4L453.85,747.55Z" fill="#dadada" stroke="#fff" stroke-width="0.5" id="AT" data-name="Austria"/>
    <path d="M685.69,854.22L682.74,854.51L681.47,851.48L681.67,850.81L680.01,849.45L679.89,847.58L677.59,848.27L675.18,846.63L674.26,845.52L672.2,846.15L670.57,844.27L668.45,842.71L666.23,842.98L664.56,842.41L663.92,841.42L662.81,838.18L663.59,837.23L664.01,835.73L663.3,833.57L661.79,831.72L664.57,831.47L667.96,830.61L669.89,830.84L672.77,830.63L674.03,829.8L675.5,831.52L678.62,834.42L676.96,836.57L678.48,838.85L681.57,840.73L680.74,843.01L678.95,842.98L680.2,844.34L683.43,847.26L684.36,847.02L685.62,847.66L684.81,849.41L686.15,851.24L685.68,852.58Z" fill="#dadada" stroke="#fff" stroke-width="0.5" id="AM" data-name="Armenia"/>
    <path d="M335,817.05L333.28,817.78L332.83,816.06L333.4,815.57L335.04,815.98Z" fill="#dadada" stroke="#fff" stroke-width="0.5" id="AD" data-name="Andorra"/>
    <path d="M478.17,589.02L480.28,590.45L478.59,591.72L478.52,593.09L476.27,593L475.8,590.34Z" fill="#dadada" stroke="#fff" stroke-width="0.5" id="AX" data-name="Aland Islands"/>
    <path d="M478.76,816.58L480.14,818.79L482.06,820.02L482.76,822.23L482.69,823.7L481.77,827.4L482.08,830L483.39,832.19L483.81,833.57L485.07,833.68L485.81,834.38L486.33,836.36L485.7,838.06L484.57,838.56L483.4,841.92L481.82,842.46L480.69,843.34L481.25,844.74L479.88,846.66L478.26,846.09L477.98,844.43L477.09,842.68L474.22,840.98L473.54,840.21L473.86,838.3L473.06,836.31L474.04,833.52L474.18,830.37L473.87,828.41L474.93,826.15L474.95,824.61L473.11,823.75L473.26,821.64L472.62,820.55L475.55,815.72L476.6,817.33Z" fill="#dadada" stroke="#fff" stroke-width="0.5" id="AL" data-name="Albania"/>
</svg>